<svg width="53" height="52" viewBox="0 0 53 52" fill="none" xmlns="http://www.w3.org/2000/svg">
<rect x="0.333344" width="52" height="52" rx="24" fill="#F1F7FE"/>
<path d="M24 23.3733C24 24.0933 24.2 24.2 24.6533 24.36L25.3333 24.6V22.3333H24.9333C24.4267 22.3333 24 22.8 24 23.3733Z" fill="#1374E7"/>
<path d="M27.3333 29.6667H27.7333C28.2533 29.6667 28.6667 29.2 28.6667 28.6267C28.6667 27.9067 28.4667 27.8 28.0133 27.64L27.3333 27.4V29.6667Z" fill="#1374E7"/>
<path d="M36.44 17.3067L33.7067 20.04C33.5067 20.24 33.2533 20.3334 33 20.3334C32.7467 20.3334 32.4933 20.24 32.2933 20.04C31.9067 19.6534 31.9067 19.0134 32.2933 18.6267L35.0267 15.8934C32.68 13.8934 29.6533 12.6667 26.3333 12.6667C18.9733 12.6667 13 18.64 13 26C13 33.36 18.9733 39.3334 26.3333 39.3334C33.6933 39.3334 39.6667 33.36 39.6667 26C39.6667 22.68 38.44 19.6534 36.44 17.3067ZM28.6667 25.76C29.52 26.0667 30.6667 26.68 30.6667 28.64C30.6667 30.3067 29.3467 31.68 27.7333 31.68H27.3333V32.0134C27.3333 32.56 26.88 33.0134 26.3333 33.0134C25.7867 33.0134 25.3333 32.56 25.3333 32.0134V31.68H25.2267C23.4533 31.68 22 30.1867 22 28.3467C22 27.7867 22.4533 27.3334 23 27.3334C23.5467 27.3334 24 27.7867 24 28.3334C24 29.0667 24.5467 29.6667 25.2267 29.6667H25.3333V26.7067L24 26.24C23.1467 25.9334 22 25.32 22 23.36C22 21.6934 23.32 20.32 24.9333 20.32H25.3333V20C25.3333 19.4534 25.7867 19 26.3333 19C26.88 19 27.3333 19.4534 27.3333 20V20.3334H27.44C29.2133 20.3334 30.6667 21.8267 30.6667 23.6667C30.6667 24.2134 30.2133 24.6667 29.6667 24.6667C29.12 24.6667 28.6667 24.2134 28.6667 23.6667C28.6667 22.9334 28.12 22.3334 27.44 22.3334H27.3333V25.2934L28.6667 25.76Z" fill="#1374E7"/>
<path d="M40.5867 12.28C40.48 12.04 40.2933 11.84 40.04 11.7334C39.92 11.6934 39.8 11.6667 39.6667 11.6667H34.3333C33.7867 11.6667 33.3333 12.12 33.3333 12.6667C33.3333 13.2134 33.7867 13.6667 34.3333 13.6667H37.2533L35.0267 15.8934C35.5333 16.3334 36 16.8 36.44 17.3067L38.6667 15.08V18C38.6667 18.5467 39.12 19 39.6667 19C40.2133 19 40.6667 18.5467 40.6667 18V12.6667C40.6667 12.5334 40.64 12.4134 40.5867 12.28Z" fill="#1374E7"/>
</svg>
