<svg width="502" height="31" viewBox="0 0 502 31" fill="none" xmlns="http://www.w3.org/2000/svg">
<path d="M9.99854 5.50002H7.57962V9.493C7.69245 9.50175 7.81065 9.51359 7.92461 9.52798C8.11474 9.54575 8.30487 9.57199 8.49218 9.60414C8.5974 9.61878 8.6998 9.6363 8.80248 9.65689C8.8699 9.67156 8.93703 9.68313 9.00445 9.6978C9.13027 9.72121 9.25608 9.75055 9.38161 9.78242C9.78691 9.87862 10.1864 9.99777 10.5782 10.1393C10.7244 10.1917 10.8706 10.2473 11.0169 10.306C11.1105 10.3441 11.2042 10.385 11.299 10.4259C11.6823 10.5925 12.0563 10.78 12.4191 10.9875V10.9407C12.761 11.1232 13.0809 11.344 13.3729 11.5988C13.3757 11.5988 13.3788 11.6019 13.3816 11.6047C13.642 11.7889 13.8936 11.985 14.1393 12.1898C14.3791 12.3918 14.6104 12.6022 14.8327 12.8245C14.9455 12.9356 15.0584 13.0502 15.163 13.1669C15.1693 13.1701 15.1744 13.1751 15.1777 13.1813C15.2832 13.2942 15.3825 13.4039 15.479 13.5198C15.6897 13.7599 15.8857 14.0056 16.0714 14.2629C16.1709 14.3974 16.2646 14.5351 16.358 14.6756C16.4313 14.7836 16.499 14.8891 16.5659 15.0002C16.5687 15.0031 16.5687 15.0059 16.5715 15.009C16.639 15.1143 16.7034 15.2225 16.7647 15.3337C16.9255 15.6174 17.0776 15.91 17.2161 16.2081C17.2745 16.334 17.3332 16.4598 17.3853 16.5887C17.4937 16.846 17.5932 17.1063 17.681 17.3695C17.7131 17.4632 17.7422 17.5568 17.7715 17.6516C17.8302 17.8386 17.8844 18.0288 17.9323 18.2192C17.9501 18.2863 17.9676 18.3565 17.9822 18.4237C18.0144 18.5495 18.0406 18.6725 18.0669 18.7983C18.0934 18.9357 18.1196 19.0733 18.1402 19.2107C18.1664 19.3628 18.1899 19.5179 18.2074 19.6699C18.2248 19.7986 18.2356 19.9238 18.2483 20.0502C18.2542 20.103 18.2573 20.1526 18.2601 20.2054C18.2645 20.2334 18.2674 20.2616 18.2688 20.29C18.2748 20.3602 18.2776 20.431 18.2807 20.5007C18.2923 20.6908 18.2982 20.8839 18.2982 21.0798C19.0592 19.9509 19.5813 18.6783 19.8323 17.3401C20.0833 16.002 20.0579 14.6266 19.7577 13.2987C19.7549 13.293 19.7549 13.2843 19.7521 13.2784C19.3383 11.477 18.4346 9.8251 17.1409 8.50509C15.8472 7.18511 14.2138 6.24841 12.4211 5.79847C11.6291 5.59878 10.8153 5.49852 9.99854 5.50002Z" fill="#1374E7"/>
<path d="M7.57959 9.493V14.4014C7.57612 14.7212 7.63615 15.0386 7.75617 15.3351C7.87618 15.6317 8.05383 15.9014 8.2788 16.1288C8.50377 16.3563 8.77161 16.5368 9.06682 16.66C9.36203 16.7832 9.67876 16.8467 9.99865 16.8467C10.3185 16.8467 10.6353 16.7832 10.9305 16.66C11.2257 16.5368 11.4935 16.3563 11.7185 16.1288C11.9435 15.9014 12.1211 15.6317 12.2411 15.3351C12.3611 15.0386 12.4211 14.7212 12.4177 14.4014V10.9881C10.9348 10.1395 9.28273 9.62894 7.57959 9.493Z" fill="#1374E7"/>
<path d="M13.3803 11.605C13.9395 12.0886 14.3881 12.6869 14.6955 13.3592C15.0029 14.0316 15.1619 14.7623 15.1617 15.5015C15.1615 15.8443 15.1283 16.1861 15.0624 16.5224C14.9939 16.8561 14.893 17.1823 14.7611 17.4965C14.3704 18.4227 13.719 19.2155 12.8861 19.7783C12.8861 19.7811 12.8861 19.7811 12.883 19.7811C12.7484 19.9069 12.6082 20.0299 12.4647 20.1478C12.4624 20.1481 12.4604 20.1492 12.459 20.1509C11.1217 21.26 9.53384 22.0256 7.83332 22.3812C6.13279 22.7368 4.37117 22.6718 2.70154 22.1916C2.64512 22.18 2.58868 22.1634 2.53226 22.1448C4.22968 24.0562 6.59545 25.2438 9.14232 25.4632C11.6892 25.6825 14.2232 24.9167 16.2224 23.3236C17.023 22.6846 17.7223 21.9281 18.2966 21.0799C18.2921 18.6299 17.5129 16.2442 16.0703 14.264C15.322 13.2392 14.4137 12.3414 13.3803 11.605Z" fill="#1374E7"/>
<path d="M-1.62125e-05 5.74569V10.271C0.000378609 10.271 0.00077486 10.2711 0.00114155 10.2712C0.00150824 10.2714 0.00181723 10.2716 0.00209904 10.2719C0.00235319 10.2722 0.00258017 10.2725 0.00269318 10.2729C0.00280619 10.2733 0.0028615 10.2737 0.00280523 10.2741H0.00590849C0.0817904 10.3237 0.157984 10.3706 0.231609 10.4233C0.410172 10.5361 0.582811 10.6572 0.752347 10.7801C1.17751 11.0898 1.58203 11.4269 1.96333 11.7892C2.03639 11.8566 2.10976 11.9268 2.18282 11.9971C2.19439 12.0086 2.20621 12.0233 2.21777 12.0352C2.32328 12.1373 2.4226 12.2397 2.51907 12.3455C2.62458 12.4566 2.72695 12.5711 2.82934 12.684C2.91115 12.7804 2.99606 12.8797 3.07787 12.9793C3.13062 13.0436 3.18308 13.1111 3.23584 13.1782C3.27984 13.2309 3.32049 13.2865 3.36168 13.3393C3.42317 13.4211 3.48464 13.5029 3.54303 13.585C3.56362 13.6132 3.58393 13.6414 3.60142 13.6668C3.67759 13.772 3.75378 13.8803 3.82374 13.9915C3.83412 14.0044 3.84354 14.0181 3.85192 14.0324C3.9309 14.1522 4.0071 14.2724 4.08016 14.3951C4.1504 14.5034 4.21469 14.6115 4.27308 14.7229C4.2996 14.7638 4.32301 14.8075 4.34642 14.8515C4.40764 14.9568 4.46631 15.062 4.51568 15.1675C4.5216 15.1791 4.52752 15.1878 4.53317 15.1996C4.60059 15.3224 4.66208 15.4482 4.72047 15.574C4.72047 15.5799 4.72329 15.5827 4.7264 15.5886C4.77012 15.6733 4.80823 15.7579 4.84631 15.8425C4.83757 15.7297 4.83475 15.6143 4.83475 15.5004V10.5835C4.83449 10.2544 4.80112 9.92604 4.73514 9.60355C4.51057 8.5137 3.91683 7.53473 3.05417 6.83188C2.19148 6.12905 1.11271 5.74538 -1.62125e-05 5.74569Z" fill="#1374E7"/>
<path d="M0.000229836 10.2711V15.5016C0.000709534 17.8301 0.815047 20.0852 2.30237 21.8768C2.37543 21.9674 2.45162 22.0582 2.53061 22.146C2.57681 22.1614 2.62392 22.1741 2.67165 22.184C2.67825 22.1895 2.68649 22.1926 2.69506 22.1928H2.70068C2.809 22.2249 2.92014 22.2543 3.03128 22.2836C3.04877 22.2864 3.06937 22.2924 3.08996 22.298C3.19518 22.3245 3.30353 22.3479 3.41157 22.3714C3.56672 22.4063 3.72187 22.4357 3.87984 22.4619C3.96447 22.4766 4.04909 22.4881 4.13372 22.5028C4.23612 22.5175 4.34134 22.529 4.44656 22.5409C4.54331 22.5527 4.63976 22.5615 4.73623 22.5691C4.78588 22.5719 4.83581 22.5778 4.88828 22.5807C5.13991 22.5982 5.39438 22.6072 5.64995 22.6072C5.71455 22.6072 5.77887 22.6072 5.84008 22.6041C5.8965 22.6041 5.9484 22.6013 6.00397 22.5982C6.03427 22.6002 6.06468 22.5993 6.09481 22.5953C6.13571 22.5953 6.17661 22.5925 6.21752 22.5894C6.32584 22.5866 6.43388 22.5778 6.5422 22.5691C6.58621 22.566 6.62993 22.5632 6.67394 22.5572C6.81132 22.5457 6.94587 22.531 7.08353 22.5104C7.16816 22.4989 7.25589 22.487 7.3408 22.4726C7.35682 22.4725 7.3727 22.4694 7.38762 22.4636C7.45194 22.4548 7.51933 22.4433 7.58506 22.4314C7.83358 22.3877 8.08241 22.3321 8.32501 22.2678C8.39835 22.2501 8.47141 22.2297 8.54165 22.2091C8.93582 22.0981 9.32352 21.9653 9.70299 21.8114C9.81103 21.7674 9.91653 21.7206 10.0218 21.6704C10.2559 21.568 10.4841 21.454 10.7092 21.3319C10.8029 21.285 10.8934 21.2326 10.9843 21.1798C11.2446 21.0306 11.4991 20.8695 11.7459 20.6971C11.8689 20.6094 11.9916 20.5217 12.1126 20.4309C12.2269 20.3431 12.3408 20.2526 12.4511 20.1617C12.4542 20.1571 12.4583 20.1532 12.463 20.1502C12.4951 20.1268 12.5242 20.1002 12.5564 20.074C12.6692 19.9804 12.7789 19.8811 12.887 19.7815C12.0358 20.3585 11.0309 20.6663 10.0026 20.665H9.99975C9.32262 20.665 8.65212 20.5314 8.02667 20.2719C7.40122 20.0124 6.83312 19.6321 6.35489 19.1527C5.46961 18.2683 4.93536 17.0926 4.85136 15.8441C4.81327 15.7595 4.77519 15.6748 4.73147 15.5902C4.72836 15.5843 4.72554 15.5815 4.72554 15.5755C4.66405 15.4497 4.60284 15.3239 4.53824 15.2012C4.5326 15.1893 4.52667 15.1806 4.52075 15.169C4.46828 15.0635 4.4096 14.9583 4.35149 14.8531C4.32808 14.8091 4.30467 14.7654 4.27815 14.7245C4.21694 14.6116 4.15262 14.505 4.0852 14.3967C4.01214 14.274 3.93595 14.1538 3.85696 14.0339C3.84858 14.0196 3.83916 14.0059 3.82878 13.993C3.75882 13.8847 3.68545 13.7766 3.60647 13.6683C3.58898 13.6421 3.56869 13.6156 3.5481 13.5865C3.48971 13.5044 3.42821 13.4226 3.36672 13.3408C3.32582 13.2881 3.28491 13.2325 3.24091 13.1797C3.19126 13.1126 3.13851 13.0452 3.08294 12.9809C3.00113 12.8813 2.91619 12.7834 2.83439 12.6855C2.73199 12.5727 2.62962 12.4573 2.52412 12.347C2.42764 12.2415 2.32835 12.1391 2.22284 12.0367C2.21128 12.0249 2.1994 12.0102 2.18784 11.9986C2.11478 11.9284 2.04146 11.8576 1.9684 11.7907C1.58707 11.4284 1.18253 11.0914 0.757388 10.7817C0.588135 10.6559 0.415186 10.536 0.236623 10.4218C0.163562 10.3721 0.0874243 10.3225 0.0109787 10.2756H0.00787449C0.00846672 10.2746 0.00863647 10.2734 0.00835514 10.2723C0.00807285 10.2711 0.00734043 10.2702 0.00632477 10.2696C0.00531006 10.269 0.00409603 10.2688 0.00296783 10.2691C0.00181103 10.2694 0.000850677 10.2701 0.000229836 10.2711Z" fill="#1374E7"/>
<g style="mix-blend-mode:multiply" opacity="0.1">
<path d="M15.1618 15.5015C15.1616 15.8443 15.1283 16.1861 15.0625 16.5224C15.7733 18.2892 16.2297 20.5154 16.2207 23.3236C17.0214 22.6846 17.7207 21.9281 18.2949 21.0799C18.2905 18.6299 17.5112 16.2442 16.0687 14.264C15.3209 13.2393 14.4132 12.3415 13.3804 11.605C13.9395 12.0886 14.3881 12.6869 14.6955 13.3592C15.0029 14.0316 15.1619 14.7623 15.1618 15.5015Z" fill="#1374E7"/>
</g>
<g style="mix-blend-mode:multiply" opacity="0.16">
<path d="M7.57973 9.49303V9.9376C9.39754 10.3603 11.0684 11.2636 12.4178 12.5529V10.9878C10.9349 10.1393 9.28284 9.62891 7.57973 9.49303Z" fill="#1374E7"/>
</g>
<g style="mix-blend-mode:multiply" opacity="0.1">
<path d="M0.731436 19.2488C1.11528 20.2008 1.64529 21.087 2.30237 21.8756C2.37543 21.9662 2.45162 22.057 2.53061 22.1447C2.57681 22.1602 2.62392 22.1729 2.67165 22.1828C2.67825 22.1883 2.68649 22.1913 2.69506 22.1916H2.70068C2.809 22.2237 2.92014 22.2531 3.03128 22.2824C3.04877 22.2852 3.06937 22.2911 3.08996 22.2968C3.19518 22.3233 3.30353 22.3467 3.41157 22.3701C3.56672 22.4051 3.72187 22.4344 3.87984 22.4607C3.96447 22.4753 4.04909 22.4869 4.13372 22.5016C4.23612 22.5163 4.34134 22.5278 4.44656 22.5397C4.54331 22.5515 4.63976 22.5603 4.73623 22.5679C4.78588 22.5707 4.83581 22.5766 4.88828 22.5794C5.13991 22.5969 5.39438 22.606 5.64995 22.606C5.71455 22.606 5.77887 22.606 5.84008 22.6029C5.8965 22.6029 5.9484 22.6 6.00397 22.5969C6.03427 22.599 6.06468 22.598 6.09481 22.5941C6.13571 22.5941 6.17661 22.5913 6.21752 22.5882C6.32584 22.5854 6.43388 22.5766 6.5422 22.5679C6.58621 22.5648 6.62993 22.562 6.67394 22.556C6.81132 22.5445 6.94587 22.5298 7.08353 22.5092C7.16816 22.4976 7.25589 22.4858 7.3408 22.4714C7.35682 22.4713 7.3727 22.4682 7.38762 22.4624C7.45194 22.4536 7.51933 22.4421 7.58506 22.4302C7.83358 22.3865 8.08241 22.3309 8.32501 22.2666C8.39835 22.2488 8.47141 22.2285 8.54165 22.2079C8.93582 22.0969 9.32352 21.9641 9.70299 21.8102C9.81103 21.7662 9.91653 21.7193 10.0218 21.6691C10.2559 21.5667 10.4841 21.4528 10.7092 21.3306C10.8029 21.2838 10.8934 21.2313 10.9843 21.1786C11.2446 21.0294 11.4991 20.8683 11.7459 20.6959C11.8689 20.6082 11.9916 20.5205 12.1126 20.4296C12.2269 20.3419 12.3408 20.2514 12.4511 20.1605C12.4542 20.1559 12.4583 20.152 12.463 20.149C12.4951 20.1255 12.5242 20.099 12.5564 20.0728C12.6692 19.9791 12.7789 19.8798 12.887 19.7803C12.0358 20.3572 11.0309 20.6651 10.0026 20.6638H9.99975C7.82342 21.1715 4.6612 21.2313 0.89643 19.3269C0.839729 19.3044 0.78334 19.2779 0.731436 19.2488Z" fill="#1374E7"/>
</g>
<g style="mix-blend-mode:multiply" opacity="0.1">
<path d="M-1.62125e-05 7.29606V10.271C0.000378609 10.271 0.00077486 10.2711 0.00114155 10.2712C0.00150824 10.2714 0.00181723 10.2716 0.00209904 10.2719C0.00235319 10.2722 0.00258017 10.2725 0.00269318 10.2729C0.00280619 10.2733 0.0028615 10.2737 0.00280523 10.2741H0.00590849C0.0817904 10.3237 0.157984 10.3706 0.231609 10.4233C0.410172 10.5361 0.582811 10.6572 0.752347 10.7801C1.17751 11.0898 1.58203 11.4269 1.96333 11.7892C2.03639 11.8566 2.10976 11.9268 2.18282 11.9971C2.19439 12.0086 2.20621 12.0233 2.21777 12.0352C2.32328 12.1373 2.4226 12.2397 2.51907 12.3455C2.62458 12.4566 2.72695 12.5711 2.82934 12.684C2.91115 12.7804 2.99606 12.8797 3.07787 12.9793C3.13062 13.0436 3.18308 13.1111 3.23584 13.1782C3.27984 13.2309 3.32049 13.2865 3.36168 13.3393C3.42317 13.4211 3.48464 13.5029 3.54303 13.585C3.56362 13.6132 3.58393 13.6414 3.60142 13.6668C3.67759 13.772 3.75378 13.8803 3.82374 13.9915C3.83412 14.0044 3.84354 14.0181 3.85192 14.0324C3.9309 14.1522 4.0071 14.2724 4.08016 14.3951C4.1504 14.5034 4.21469 14.6115 4.27308 14.7229C4.2996 14.7638 4.32301 14.8075 4.34642 14.8515C4.40764 14.9568 4.46631 15.062 4.51568 15.1675C4.5216 15.1791 4.52752 15.1878 4.53317 15.1996C4.60059 15.3224 4.66208 15.4482 4.72047 15.574C4.72047 15.5799 4.72329 15.5827 4.7264 15.5886C4.77012 15.6733 4.80823 15.7579 4.84631 15.8425C4.83757 15.7297 4.83475 15.6143 4.83475 15.5004V14.2056C3.83096 11.6419 2.25038 9.34378 0.21553 7.48929C0.146136 7.42413 0.0730448 7.36038 -1.62125e-05 7.29606Z" fill="#1374E7"/>
</g>
<g style="mix-blend-mode:screen" opacity="0.6">
<path d="M14.1378 12.1916C15.3334 13.1963 16.3148 14.4311 17.0239 15.8225C17.7329 17.214 18.1551 18.7337 18.2654 20.2915C18.2682 20.2478 18.2741 20.1104 18.28 19.9025C18.2843 19.7464 18.2803 19.5902 18.2682 19.4345C18.2621 19.2319 18.2446 19.0298 18.2157 18.8292C18.2039 18.7163 18.1875 18.6035 18.1717 18.4839C18.1483 18.3668 18.1249 18.2438 18.1015 18.1172C18.0546 17.8655 17.9816 17.6052 17.9057 17.3361C17.8149 17.0729 17.7418 16.7919 17.6219 16.5228C17.5136 16.2477 17.385 15.9786 17.2552 15.7095C17.1091 15.4463 16.9714 15.18 16.8106 14.9343C16.6586 14.6827 16.4831 14.4517 16.3192 14.2266C16.1466 14.004 15.974 13.7964 15.8016 13.6094C15.6418 13.4301 15.4729 13.2592 15.2955 13.0974C15.1345 12.9422 14.9796 12.8105 14.836 12.6965C14.7171 12.5966 14.5931 12.503 14.4645 12.4158C14.2811 12.2838 14.1641 12.2077 14.1378 12.1916Z" fill="#1374E7"/>
</g>
<g style="mix-blend-mode:screen" opacity="0.6">
<path d="M0.00592995 10.2733H0.00282669C0.0205979 10.2908 0.0995827 10.3669 0.231037 10.4837C0.377441 10.6155 0.587882 10.8056 0.839505 11.031C0.962497 11.1478 1.09339 11.2708 1.23443 11.4025C1.37548 11.5342 1.51229 11.6803 1.66433 11.8205C1.95686 12.119 2.26406 12.4378 2.55658 12.7684C2.85504 13.099 3.13289 13.4454 3.39326 13.7658C3.51625 13.9351 3.64714 14.0877 3.75998 14.2454C3.87281 14.4031 3.98227 14.5467 4.08184 14.6812C4.28072 14.9534 4.44179 15.1816 4.55575 15.3484C4.64038 15.4711 4.70188 15.5532 4.72839 15.5881C3.69355 13.4023 2.05489 11.5581 0.00592995 10.2733Z" fill="#1374E7"/>
</g>
<g style="mix-blend-mode:screen" opacity="0.6">
<path d="M5.64868 22.6071C4.65155 22.6085 3.65928 22.4686 2.70141 22.1916H2.68985C2.68985 22.1916 2.83907 22.2587 3.11101 22.3555C3.48548 22.4891 3.86994 22.5929 4.2608 22.6658C4.81677 22.7743 5.38205 22.8282 5.94855 22.8265C6.26796 22.8288 6.58725 22.8143 6.90511 22.7828C7.2298 22.7476 7.56041 22.7007 7.88509 22.6336C8.20978 22.5665 8.53164 22.4785 8.8442 22.3797C8.99997 22.334 9.15325 22.2802 9.30344 22.2186C9.45266 22.1622 9.59907 22.1019 9.74237 22.0373C10.0162 21.9196 10.2829 21.7858 10.541 21.6367C10.7749 21.5084 11.0015 21.3672 11.2197 21.2136C11.4059 21.0873 11.5855 20.9516 11.7579 20.8071C11.9159 20.6841 12.0417 20.5614 12.1497 20.4686C12.3342 20.2872 12.4423 20.1729 12.46 20.1526C10.5468 21.7427 8.13641 22.6113 5.64868 22.6071Z" fill="#1374E7"/>
</g>
<g style="mix-blend-mode:multiply" opacity="0.3">
<path d="M0.000194073 5.74582V15.5016C0.000673294 17.8301 0.81501 20.0852 2.30233 21.8768C2.10063 21.6018 1.91051 21.3239 1.73194 21.0342C1.55019 20.7401 1.38418 20.4365 1.23462 20.1248C1.10599 19.8644 0.994843 19.5981 0.892444 19.329C0.871852 19.2791 0.854362 19.2266 0.83377 19.1738C0.713374 18.8518 0.609819 18.5238 0.523471 18.191C0.435741 17.8596 0.3655 17.5237 0.313032 17.1848C0.266205 16.8463 0.228432 16.5061 0.213481 16.1668C0.19853 15.8274 0.201605 15.4881 0.204709 15.1371L0.216302 14.0934L0.230971 12.0076V9.92187C0.230971 9.11134 0.226063 8.30107 0.216302 7.49111C0.213481 6.97601 0.20471 6.4612 0.198786 5.94949L0.396276 5.95231L0.791174 5.99603L1.1782 6.07361L1.56156 6.18165L1.93589 6.32495L2.29556 6.50041L2.64084 6.7052L2.96834 6.93934L3.27554 7.19689L3.56524 7.47898L3.83154 7.78335L4.07131 8.11086L4.28203 8.46206L4.46342 8.82878L4.61546 9.20903L4.73535 9.60396C4.51084 8.51407 3.91712 7.53503 3.05446 6.83212C2.19178 6.12923 1.11298 5.74553 0.000194073 5.74582Z" fill="#1374E7"/>
</g>
<g style="mix-blend-mode:multiply" opacity="0.3">
<path d="M9.99845 5.49996H7.57953V8.9313C7.61733 8.36092 7.63792 7.78743 7.66416 7.21704C7.68757 6.69348 7.70506 6.17331 7.72057 5.64919L9.56939 5.69602C9.90282 5.70194 10.2275 5.69884 10.5494 5.72422C10.8729 5.74705 11.1951 5.78612 11.5147 5.84129C11.8334 5.89131 12.1489 5.95969 12.4597 6.04609C12.7753 6.12942 13.086 6.23001 13.3906 6.34736C13.6919 6.44976 13.9875 6.59306 14.2828 6.72198C14.5666 6.87684 14.862 7.0114 15.1311 7.19278C15.4132 7.35357 15.6724 7.54681 15.9387 7.73411C16.0701 7.82777 16.1926 7.93581 16.3189 8.03539C16.4478 8.13451 16.5708 8.24094 16.6874 8.35415C16.8044 8.46529 16.9274 8.57361 17.0414 8.68758L17.3799 9.0416C17.4927 9.15444 17.5906 9.2873 17.6987 9.41029C17.8011 9.53582 17.9094 9.65599 18.003 9.79055L18.2925 10.1855L18.5559 10.5979C18.6493 10.7353 18.7252 10.88 18.8044 11.021C18.8837 11.1621 18.9712 11.3048 19.0386 11.454C19.1796 11.7497 19.3224 12.0464 19.4335 12.3581C19.5593 12.6563 19.6439 12.9694 19.7495 13.2766C19.3356 11.4753 18.432 9.82338 17.1383 8.50337C15.8446 7.18339 14.2111 6.24668 12.4185 5.79672C11.6273 5.59782 10.8143 5.49813 9.99845 5.49996Z" fill="#1374E7"/>
</g>
<path d="M41.3954 20.36C41.4274 20.76 41.5794 21.16 41.8514 21.56C42.1234 21.944 42.2594 22.24 42.2594 22.448V22.544C42.2594 22.848 42.0674 23 41.6834 23H36.9074C36.5234 23 36.3314 22.848 36.3314 22.544V22.448C36.3314 22.256 36.4754 21.96 36.7634 21.56C37.0674 21.16 37.2114 20.76 37.1954 20.36L36.9554 15.896C36.8914 14.792 36.7314 14.008 36.4754 13.544C36.2194 13.064 35.8194 12.824 35.2754 12.824C34.7634 12.824 34.3714 13.032 34.0994 13.448C33.8434 13.864 33.7154 14.432 33.7154 15.152V20.384C33.7154 20.784 33.8914 21.184 34.2434 21.584C34.6114 21.968 34.7954 22.256 34.7954 22.448V22.544C34.7954 22.848 34.6034 23 34.2194 23H29.0114C28.6434 23 28.4594 22.848 28.4594 22.544V22.448C28.4594 22.256 28.6354 21.968 28.9874 21.584C29.3394 21.184 29.5154 20.784 29.5154 20.384V9.248C29.5154 8.832 29.3154 8.456 28.9154 8.12C28.5314 7.784 28.3394 7.52 28.3394 7.328V7.256C28.3394 6.968 28.5234 6.744 28.8914 6.584L32.6834 4.904C32.9554 4.776 33.1714 4.76 33.3314 4.856C33.5074 4.952 33.5954 5.136 33.5954 5.408V12.368C34.3154 11.616 35.2914 11.24 36.5234 11.24C37.7074 11.24 38.7314 11.624 39.5954 12.392C40.4594 13.144 40.9554 14.36 41.0834 16.04L41.3954 20.36ZM54.5815 20.384C54.6295 20.768 54.7175 21.08 54.8455 21.32C54.9895 21.544 55.1255 21.688 55.2535 21.752C55.3975 21.816 55.5255 21.896 55.6375 21.992C55.7495 22.088 55.8055 22.208 55.8055 22.352C55.8055 22.88 54.9015 23.144 53.0935 23.144C52.3575 23.144 51.8055 23.056 51.4375 22.88C51.0855 22.704 50.8615 22.408 50.7655 21.992C50.1575 22.824 49.1415 23.24 47.7175 23.24C46.3735 23.24 45.2775 22.928 44.4295 22.304C43.5975 21.68 43.1815 20.776 43.1815 19.592C43.1815 18.44 43.5975 17.544 44.4295 16.904C45.2615 16.248 46.2855 15.92 47.5015 15.92C48.4455 15.92 49.2535 16.12 49.9255 16.52V16.448C49.7655 14.864 49.5815 13.792 49.3735 13.232C49.1815 12.672 48.7975 12.392 48.2215 12.392C47.8535 12.392 47.5575 12.56 47.3335 12.896C47.1095 13.232 46.9415 13.6 46.8295 14C46.7335 14.4 46.5415 14.768 46.2535 15.104C45.9655 15.44 45.5815 15.608 45.1015 15.608C44.6055 15.608 44.1975 15.464 43.8775 15.176C43.5735 14.888 43.4215 14.512 43.4215 14.048C43.4215 13.12 43.8855 12.424 44.8135 11.96C45.7415 11.48 46.8775 11.24 48.2215 11.24C49.8215 11.24 51.1415 11.68 52.1815 12.56C53.2375 13.424 53.8615 14.6 54.0535 16.088L54.5815 20.384ZM49.0375 22.016C49.4055 22.016 49.7015 21.84 49.9255 21.488C50.1655 21.136 50.2855 20.736 50.2855 20.288L50.1895 19.184C50.0295 17.856 49.5335 17.192 48.7015 17.192C48.3335 17.192 48.0375 17.344 47.8135 17.648C47.5895 17.936 47.4775 18.328 47.4775 18.824C47.4775 19.72 47.6135 20.48 47.8855 21.104C48.1735 21.712 48.5575 22.016 49.0375 22.016ZM61.6323 23.216C60.0963 23.216 58.8323 22.96 57.8403 22.448C56.8483 21.92 56.3523 21.24 56.3523 20.408C56.3523 19.896 56.5043 19.512 56.8083 19.256C57.1283 19 57.5443 18.872 58.0563 18.872C58.6003 18.872 59.0323 19.048 59.3523 19.4C59.6723 19.736 59.8883 20.112 60.0003 20.528C60.1123 20.928 60.3043 21.304 60.5763 21.656C60.8483 21.992 61.2003 22.16 61.6323 22.16C62.4963 22.16 62.9283 21.72 62.9283 20.84C62.9283 20.264 62.7043 19.808 62.2563 19.472C61.8243 19.136 61.2963 18.88 60.6723 18.704C60.0483 18.528 59.4243 18.328 58.8003 18.104C58.1923 17.88 57.6643 17.504 57.2163 16.976C56.7843 16.448 56.5683 15.752 56.5683 14.888C56.5683 13.816 57.0403 12.944 57.9843 12.272C58.9283 11.584 60.1443 11.24 61.6323 11.24C63.1203 11.24 64.3283 11.52 65.2563 12.08C66.2003 12.64 66.6723 13.32 66.6723 14.12C66.6723 14.536 66.5123 14.888 66.1923 15.176C65.8883 15.448 65.5123 15.584 65.0643 15.584C64.5363 15.584 64.1203 15.416 63.8163 15.08C63.5123 14.744 63.3043 14.376 63.1923 13.976C63.0963 13.56 62.9363 13.184 62.7123 12.848C62.5043 12.512 62.2163 12.344 61.8483 12.344C61.4963 12.344 61.2163 12.48 61.0083 12.752C60.8163 13.024 60.7203 13.344 60.7203 13.712C60.7203 14.304 60.9283 14.784 61.3443 15.152C61.7763 15.52 62.2883 15.8 62.8803 15.992C63.4883 16.184 64.0883 16.392 64.6803 16.616C65.2883 16.84 65.8003 17.208 66.2163 17.72C66.6483 18.216 66.8643 18.872 66.8643 19.688C66.8643 20.712 66.3923 21.56 65.4483 22.232C64.5203 22.888 63.2483 23.216 61.6323 23.216ZM80.8173 20.36C80.8493 20.76 81.0013 21.16 81.2733 21.56C81.5453 21.944 81.6813 22.24 81.6813 22.448V22.544C81.6813 22.848 81.4893 23 81.1053 23H76.3293C75.9453 23 75.7533 22.848 75.7533 22.544V22.448C75.7533 22.256 75.8973 21.96 76.1853 21.56C76.4893 21.16 76.6333 20.76 76.6173 20.36L76.3773 15.896C76.3133 14.792 76.1533 14.008 75.8973 13.544C75.6413 13.064 75.2413 12.824 74.6973 12.824C74.1853 12.824 73.7933 13.032 73.5213 13.448C73.2653 13.864 73.1373 14.432 73.1373 15.152V20.384C73.1373 20.784 73.3133 21.184 73.6653 21.584C74.0333 21.968 74.2173 22.256 74.2173 22.448V22.544C74.2173 22.848 74.0253 23 73.6413 23H68.4333C68.0653 23 67.8813 22.848 67.8813 22.544V22.448C67.8813 22.256 68.0573 21.968 68.4093 21.584C68.7613 21.184 68.9373 20.784 68.9373 20.384V9.248C68.9373 8.832 68.7373 8.456 68.3373 8.12C67.9533 7.784 67.7613 7.52 67.7613 7.328V7.256C67.7613 6.968 67.9453 6.744 68.3133 6.584L72.1053 4.904C72.3773 4.776 72.5933 4.76 72.7533 4.856C72.9293 4.952 73.0173 5.136 73.0173 5.408V12.368C73.7373 11.616 74.7133 11.24 75.9453 11.24C77.1293 11.24 78.1533 11.624 79.0173 12.392C79.8813 13.144 80.3773 14.36 80.5053 16.04L80.8173 20.36ZM92.4434 19.208C92.6194 19.032 92.8114 18.984 93.0194 19.064C93.2434 19.128 93.3474 19.288 93.3314 19.544C93.2994 20.344 92.8354 21.16 91.9394 21.992C91.0434 22.824 89.8834 23.24 88.4594 23.24C86.7154 23.24 85.2914 22.68 84.1874 21.56C83.0834 20.44 82.5314 18.976 82.5314 17.168C82.5314 15.44 83.1074 14.024 84.2594 12.92C85.4274 11.8 86.8194 11.24 88.4354 11.24C89.8914 11.24 91.0194 11.576 91.8194 12.248C92.6194 12.92 93.0194 13.68 93.0194 14.528C93.0194 15.2 92.7074 15.696 92.0834 16.016L87.3074 18.704C87.9634 19.744 88.8754 20.264 90.0434 20.264C90.5394 20.264 91.0034 20.168 91.4354 19.976C91.8834 19.768 92.2194 19.512 92.4434 19.208ZM88.0034 12.416C87.5234 12.416 87.1314 12.656 86.8274 13.136C86.5394 13.616 86.3954 14.216 86.3954 14.936C86.3954 15.896 86.5154 16.736 86.7554 17.456L88.9874 16.112C89.4034 15.824 89.6114 15.416 89.6114 14.888C89.6114 14.36 89.4754 13.816 89.2034 13.256C88.9474 12.696 88.5474 12.416 88.0034 12.416ZM104.186 19.208C104.362 19.032 104.554 18.984 104.762 19.064C104.986 19.128 105.09 19.288 105.074 19.544C105.042 20.344 104.578 21.16 103.682 21.992C102.786 22.824 101.626 23.24 100.202 23.24C98.4576 23.24 97.0336 22.68 95.9296 21.56C94.8256 20.44 94.2736 18.976 94.2736 17.168C94.2736 15.44 94.8496 14.024 96.0016 12.92C97.1696 11.8 98.5616 11.24 100.178 11.24C101.634 11.24 102.762 11.576 103.562 12.248C104.362 12.92 104.762 13.68 104.762 14.528C104.762 15.2 104.45 15.696 103.826 16.016L99.0496 18.704C99.7056 19.744 100.618 20.264 101.786 20.264C102.282 20.264 102.746 20.168 103.178 19.976C103.626 19.768 103.962 19.512 104.186 19.208ZM99.7456 12.416C99.2656 12.416 98.8736 12.656 98.5696 13.136C98.2816 13.616 98.1376 14.216 98.1376 14.936C98.1376 15.896 98.2576 16.736 98.4976 17.456L100.73 16.112C101.146 15.824 101.354 15.416 101.354 14.888C101.354 14.36 101.218 13.816 100.946 13.256C100.69 12.696 100.29 12.416 99.7456 12.416ZM114.128 11.24C114.816 11.24 115.36 11.464 115.76 11.912C116.176 12.36 116.384 12.928 116.384 13.616C116.384 15.12 115.768 15.872 114.536 15.872C114.04 15.872 113.664 15.76 113.408 15.536C113.152 15.296 113 15.032 112.952 14.744C112.92 14.456 112.84 14.2 112.712 13.976C112.584 13.736 112.392 13.616 112.136 13.616C111.544 13.616 111.248 14.384 111.248 15.92V20.384C111.248 20.784 111.456 21.184 111.872 21.584C112.304 21.968 112.52 22.256 112.52 22.448V22.544C112.52 22.848 112.328 23 111.944 23H106.784C106.4 23 106.208 22.848 106.208 22.544V22.448C106.208 22.256 106.368 21.968 106.688 21.584C107.008 21.184 107.168 20.784 107.168 20.384V15.608C107.168 15.288 107.072 15.016 106.88 14.792C106.688 14.568 106.496 14.376 106.304 14.216C106.112 14.056 106.016 13.88 106.016 13.688V13.616C106.016 13.344 106.2 13.112 106.568 12.92L109.952 11.336C110.272 11.224 110.496 11.216 110.624 11.312C110.752 11.408 110.816 11.592 110.816 11.864V13.616C111.36 12.032 112.464 11.24 114.128 11.24ZM128.246 20.384C128.294 20.768 128.382 21.08 128.51 21.32C128.654 21.544 128.79 21.688 128.918 21.752C129.062 21.816 129.19 21.896 129.302 21.992C129.414 22.088 129.47 22.208 129.47 22.352C129.47 22.88 128.566 23.144 126.758 23.144C126.022 23.144 125.47 23.056 125.102 22.88C124.75 22.704 124.526 22.408 124.43 21.992C123.822 22.824 122.806 23.24 121.382 23.24C120.038 23.24 118.942 22.928 118.094 22.304C117.262 21.68 116.846 20.776 116.846 19.592C116.846 18.44 117.262 17.544 118.094 16.904C118.926 16.248 119.95 15.92 121.166 15.92C122.11 15.92 122.918 16.12 123.59 16.52V16.448C123.43 14.864 123.246 13.792 123.038 13.232C122.846 12.672 122.462 12.392 121.886 12.392C121.518 12.392 121.222 12.56 120.998 12.896C120.774 13.232 120.606 13.6 120.494 14C120.398 14.4 120.206 14.768 119.918 15.104C119.63 15.44 119.246 15.608 118.766 15.608C118.27 15.608 117.862 15.464 117.542 15.176C117.238 14.888 117.086 14.512 117.086 14.048C117.086 13.12 117.55 12.424 118.478 11.96C119.406 11.48 120.542 11.24 121.886 11.24C123.486 11.24 124.806 11.68 125.846 12.56C126.902 13.424 127.526 14.6 127.718 16.088L128.246 20.384ZM122.702 22.016C123.07 22.016 123.366 21.84 123.59 21.488C123.83 21.136 123.95 20.736 123.95 20.288L123.854 19.184C123.694 17.856 123.198 17.192 122.366 17.192C121.998 17.192 121.702 17.344 121.478 17.648C121.254 17.936 121.142 18.328 121.142 18.824C121.142 19.72 121.278 20.48 121.55 21.104C121.838 21.712 122.222 22.016 122.702 22.016Z" fill="#212327"/>
</svg>
