<svg width="165" height="39" viewBox="0 0 165 39" fill="none" xmlns="http://www.w3.org/2000/svg">
<path d="M11.9982 7.50002H9.09553V12.2916C9.23093 12.3021 9.37277 12.3163 9.50952 12.3336C9.73768 12.3549 9.96583 12.3864 10.1906 12.425C10.3169 12.4425 10.4397 12.4636 10.563 12.4883C10.6439 12.5059 10.7244 12.5198 10.8053 12.5374C10.9563 12.5655 11.1073 12.6007 11.2579 12.6389C11.7443 12.7543 12.2237 12.8973 12.6939 13.0671C12.8692 13.1301 13.0447 13.1968 13.2202 13.2672C13.3326 13.3129 13.445 13.362 13.5588 13.411C14.0188 13.611 14.4675 13.8359 14.903 14.085V14.0288C15.3131 14.2479 15.6971 14.5128 16.0475 14.8186C16.0508 14.8186 16.0546 14.8223 16.058 14.8257C16.3704 15.0467 16.6723 15.282 16.9672 15.5277C17.2549 15.7701 17.5325 16.0226 17.7992 16.2894C17.9346 16.4227 18.07 16.5602 18.1956 16.7003C18.2031 16.7041 18.2093 16.7102 18.2132 16.7176C18.3398 16.853 18.459 16.9847 18.5748 17.1238C18.8276 17.4119 19.0629 17.7067 19.2856 18.0154C19.4051 18.1769 19.5175 18.3421 19.6295 18.5107C19.7176 18.6403 19.7988 18.7669 19.879 18.9003C19.8824 18.9037 19.8824 18.9071 19.8858 18.9108C19.9668 19.0371 20.0441 19.167 20.1177 19.3004C20.3106 19.6409 20.4931 19.992 20.6593 20.3498C20.7294 20.5007 20.7998 20.6517 20.8624 20.8064C20.9924 21.1151 21.1119 21.4276 21.2172 21.7434C21.2557 21.8558 21.2906 21.9682 21.3258 22.0819C21.3962 22.3063 21.4612 22.5345 21.5188 22.763C21.5401 22.8436 21.5611 22.9278 21.5787 23.0084C21.6173 23.1594 21.6487 23.307 21.6802 23.458C21.712 23.6228 21.7435 23.788 21.7682 23.9528C21.7997 24.1353 21.8278 24.3215 21.8488 24.5039C21.8698 24.6583 21.8827 24.8086 21.8979 24.9602C21.905 25.0235 21.9087 25.0831 21.9121 25.1464C21.9174 25.18 21.9209 25.214 21.9226 25.248C21.9297 25.3323 21.9331 25.4172 21.9368 25.5008C21.9508 25.729 21.9578 25.9606 21.9578 26.1958C22.8711 24.8411 23.4976 23.3139 23.7988 21.7081C24.1 20.1024 24.0695 18.452 23.7092 16.8584C23.7059 16.8516 23.7059 16.8411 23.7025 16.834C23.2059 14.6724 22.1215 12.6901 20.569 11.1061C19.0166 9.52213 17.0565 8.39809 14.9053 7.85817C13.9549 7.61854 12.9784 7.49823 11.9982 7.50002Z" fill="white"/>
<path d="M9.09552 12.2915V18.1816C9.09135 18.5654 9.16339 18.9463 9.30742 19.3021C9.45142 19.6579 9.66461 19.9817 9.93457 20.2546C10.2045 20.5275 10.5259 20.7441 10.8802 20.892C11.2344 21.0398 11.6145 21.116 11.9984 21.116C12.3823 21.116 12.7623 21.0398 13.1166 20.892C13.4708 20.7441 13.7922 20.5275 14.0622 20.2546C14.3322 19.9817 14.5453 19.6579 14.6894 19.3021C14.8334 18.9463 14.9054 18.5654 14.9013 18.1816V14.0856C13.1218 13.0673 11.1393 12.4547 9.09552 12.2915Z" fill="white"/>
<path d="M16.0563 14.826C16.7274 15.4063 17.2657 16.1243 17.6345 16.9311C18.0034 17.7379 18.1942 18.6147 18.1941 19.5019C18.1938 19.9131 18.1539 20.3233 18.0749 20.7269C17.9926 21.1274 17.8716 21.5188 17.7133 21.8958C17.2445 23.0073 16.4628 23.9585 15.4633 24.634C15.4633 24.6374 15.4633 24.6374 15.4596 24.6374C15.2981 24.7883 15.1299 24.9359 14.9576 25.0774C14.9549 25.0777 14.9525 25.0791 14.9508 25.0811C13.3461 26.4119 11.4406 27.3307 9.39997 27.7574C7.35934 28.1842 5.24539 28.1061 3.24183 27.5299C3.17413 27.516 3.1064 27.496 3.0387 27.4737C5.0756 29.7674 7.91453 31.1926 10.9708 31.4558C14.027 31.719 17.0678 30.8001 19.4668 28.8883C20.4276 28.1216 21.2668 27.2138 21.9559 26.1958C21.9505 23.2559 21.0154 20.3931 19.2844 18.0168C18.3864 16.787 17.2965 15.7097 16.0563 14.826Z" fill="white"/>
<path d="M-4.3869e-05 7.79493V13.2253C0.000430107 13.2253 0.000905514 13.2254 0.00134563 13.2255C0.00178576 13.2257 0.00215673 13.226 0.00249529 13.2264C0.00279951 13.2267 0.00307226 13.2271 0.00320768 13.2276C0.00334311 13.228 0.00340986 13.2285 0.00334215 13.229H0.00706625C0.098125 13.2886 0.189557 13.3448 0.277907 13.4081C0.492182 13.5435 0.699349 13.6887 0.902792 13.8363C1.41299 14.2079 1.89841 14.6124 2.35597 15.0471C2.44364 15.128 2.53169 15.2123 2.61936 15.2966C2.63324 15.3105 2.64743 15.3281 2.6613 15.3423C2.78791 15.4648 2.90709 15.5877 3.02286 15.7147C3.14947 15.848 3.27231 15.9855 3.39519 16.1209C3.49336 16.2366 3.59525 16.3558 3.69341 16.4753C3.75671 16.5525 3.81968 16.6334 3.88298 16.7139C3.93579 16.7772 3.98456 16.8439 4.03399 16.9072C4.10778 17.0054 4.18154 17.1036 4.25161 17.2021C4.27632 17.2359 4.3007 17.2698 4.32168 17.3002C4.41308 17.4265 4.50451 17.5565 4.58846 17.6898C4.60092 17.7053 4.61222 17.7218 4.62228 17.7389C4.71706 17.8828 4.80849 18.027 4.89617 18.1743C4.98045 18.3042 5.0576 18.4339 5.12767 18.5676C5.15949 18.6167 5.18759 18.6691 5.21568 18.722C5.28914 18.8482 5.35955 18.9745 5.41879 19.1011C5.4259 19.115 5.433 19.1255 5.43977 19.1397C5.52068 19.2869 5.59447 19.4379 5.66454 19.5889C5.66454 19.596 5.66793 19.5994 5.67165 19.6065C5.72412 19.708 5.76985 19.8096 5.81555 19.9111C5.80506 19.7757 5.80167 19.6373 5.80167 19.5005V13.6003C5.80137 13.2053 5.76132 12.8113 5.68215 12.4244C5.41266 11.1165 4.70017 9.94178 3.66498 9.09835C2.62976 8.25496 1.33523 7.79456 -4.3869e-05 7.79493Z" fill="white"/>
<path d="M0.000275612 13.2253V19.5019C0.000851631 22.2961 0.978056 25.0022 2.76284 27.1522C2.85051 27.2608 2.94194 27.3698 3.03673 27.4751C3.09217 27.4937 3.1487 27.5089 3.20598 27.5208C3.2139 27.5273 3.22379 27.531 3.23408 27.5313H3.24081C3.3708 27.5699 3.50417 27.6051 3.63754 27.6403C3.65853 27.6437 3.68324 27.6508 3.70795 27.6576C3.83421 27.6894 3.96423 27.7175 4.09388 27.7456C4.28006 27.7875 4.46624 27.8228 4.65581 27.8542C4.75736 27.8718 4.85891 27.8857 4.96046 27.9033C5.08334 27.9209 5.20961 27.9348 5.33587 27.949C5.45198 27.9632 5.56771 27.9737 5.68348 27.9829C5.74306 27.9863 5.80298 27.9934 5.86594 27.9967C6.16789 28.0177 6.47325 28.0286 6.77994 28.0286C6.85746 28.0286 6.93464 28.0286 7.0081 28.0248C7.0758 28.0248 7.13808 28.0215 7.20477 28.0177C7.24113 28.0202 7.27762 28.0191 7.31377 28.0143C7.36285 28.0143 7.41194 28.011 7.46102 28.0072C7.59101 28.0039 7.72065 27.9934 7.85064 27.9829C7.90345 27.9791 7.95592 27.9758 8.00873 27.9686C8.17358 27.9548 8.33505 27.9372 8.50024 27.9125C8.60179 27.8986 8.70707 27.8844 8.80896 27.8671C8.82818 27.867 8.84724 27.8633 8.86515 27.8563C8.94233 27.8458 9.0232 27.8319 9.10207 27.8177C9.4003 27.7652 9.69889 27.6985 9.99001 27.6213C10.078 27.6 10.1657 27.5756 10.25 27.5509C10.723 27.4177 11.1882 27.2583 11.6436 27.0736C11.7732 27.0208 11.8998 26.9646 12.0261 26.9044C12.3071 26.7815 12.5809 26.6447 12.851 26.4982C12.9634 26.442 13.0721 26.379 13.1811 26.3157C13.4936 26.1366 13.7989 25.9434 14.0951 25.7365C14.2426 25.6313 14.3899 25.526 14.5352 25.417C14.6722 25.3117 14.809 25.203 14.9413 25.094C14.9451 25.0885 14.95 25.0838 14.9556 25.0802C14.9942 25.0521 15.029 25.0202 15.0676 24.9888C15.203 24.8764 15.3347 24.7572 15.4644 24.6377C14.443 25.3301 13.237 25.6995 12.0031 25.6979H11.9997C11.1871 25.6979 10.3825 25.5377 9.632 25.2263C8.88146 24.9149 8.19974 24.4585 7.62587 23.8832C6.56353 22.8219 5.92243 21.4111 5.82163 19.9128C5.77593 19.8113 5.73023 19.7097 5.67776 19.6082C5.67404 19.6011 5.67065 19.5977 5.67065 19.5906C5.59686 19.4396 5.5234 19.2886 5.44588 19.1414C5.43911 19.1272 5.432 19.1167 5.4249 19.1028C5.36193 18.9762 5.29152 18.8499 5.22179 18.7237C5.1937 18.6709 5.1656 18.6184 5.13378 18.5693C5.06032 18.4339 4.98314 18.3059 4.90224 18.176C4.81457 18.0287 4.72314 17.8845 4.62835 17.7406C4.6183 17.7235 4.60699 17.7071 4.59454 17.6916C4.51059 17.5616 4.42254 17.4319 4.32776 17.3019C4.30677 17.2705 4.28243 17.2386 4.25772 17.2038C4.18765 17.1053 4.11386 17.0071 4.04006 16.9089C3.99098 16.8456 3.94189 16.7789 3.88909 16.7156C3.82951 16.6351 3.76621 16.5542 3.69952 16.477C3.60136 16.3575 3.49943 16.24 3.40126 16.1226C3.27839 15.9872 3.15554 15.8487 3.02894 15.7164C2.91317 15.5898 2.79401 15.4669 2.66741 15.344C2.65353 15.3298 2.63928 15.3122 2.6254 15.2983C2.53773 15.214 2.44975 15.1291 2.36208 15.0488C1.90448 14.6141 1.41903 14.2096 0.908866 13.838C0.705762 13.687 0.498222 13.5431 0.283947 13.4061C0.196274 13.3465 0.104909 13.2869 0.0131741 13.2307H0.00944901C0.0101604 13.2295 0.0103636 13.2281 0.010025 13.2267C0.00968647 13.2253 0.00880909 13.2241 0.00759029 13.2234C0.0063715 13.2227 0.00491524 13.2225 0.00356102 13.2229C0.00217342 13.2232 0.00102043 13.2241 0.000275612 13.2253Z" fill="white"/>
<g style="mix-blend-mode:multiply" opacity="0.1">
<path d="M18.1941 19.5017C18.1939 19.913 18.154 20.3232 18.075 20.7268C18.928 22.8468 19.4757 25.5183 19.4649 28.8882C20.4257 28.1214 21.2648 27.2136 21.9539 26.1957C21.9486 23.2558 21.0135 20.3929 19.2824 18.0167C18.3851 16.787 17.2958 15.7097 16.0564 14.8259C16.7275 15.4062 17.2657 16.1241 17.6346 16.9309C18.0035 17.7378 18.1943 18.6146 18.1941 19.5017Z" fill="white"/>
</g>
<g style="mix-blend-mode:multiply" opacity="0.16">
<path d="M9.09569 12.2918V12.8253C11.2771 13.3326 13.2821 14.4165 14.9014 15.9636V14.0856C13.1219 13.0674 11.1394 12.4549 9.09569 12.2918Z" fill="white"/>
</g>
<g style="mix-blend-mode:multiply" opacity="0.1">
<path d="M0.877723 23.9985C1.33833 25.1409 1.97435 26.2044 2.76284 27.1507C2.85051 27.2594 2.94194 27.3684 3.03673 27.4736C3.09217 27.4922 3.1487 27.5075 3.20598 27.5193C3.2139 27.5259 3.22379 27.5296 3.23408 27.5298H3.24081C3.3708 27.5684 3.50417 27.6036 3.63754 27.6388C3.65853 27.6422 3.68324 27.6493 3.70795 27.6561C3.83421 27.6879 3.96423 27.716 4.09388 27.7441C4.28006 27.7861 4.46624 27.8213 4.65581 27.8528C4.75736 27.8704 4.85891 27.8842 4.96046 27.9019C5.08334 27.9195 5.20961 27.9333 5.33587 27.9476C5.45198 27.9618 5.56771 27.9723 5.68348 27.9814C5.74306 27.9848 5.80298 27.9919 5.86594 27.9953C6.16789 28.0163 6.47325 28.0271 6.77994 28.0271C6.85746 28.0271 6.93464 28.0271 7.0081 28.0234C7.0758 28.0234 7.13808 28.02 7.20477 28.0163C7.24113 28.0187 7.27762 28.0176 7.31377 28.0129C7.36285 28.0129 7.41194 28.0095 7.46102 28.0058C7.59101 28.0024 7.72065 27.9919 7.85064 27.9814C7.90345 27.9777 7.95592 27.9743 8.00873 27.9672C8.17358 27.9533 8.33505 27.9357 8.50024 27.911C8.60179 27.8971 8.70707 27.8829 8.80896 27.8656C8.82818 27.8655 8.84724 27.8618 8.86515 27.8548C8.94233 27.8443 9.0232 27.8304 9.10207 27.8162C9.4003 27.7637 9.69889 27.6971 9.99001 27.6199C10.078 27.5985 10.1657 27.5742 10.25 27.5495C10.723 27.4162 11.1882 27.2568 11.6436 27.0722C11.7732 27.0194 11.8998 26.9632 12.0261 26.9029C12.3071 26.78 12.5809 26.6433 12.851 26.4967C12.9634 26.4405 13.0721 26.3776 13.1811 26.3143C13.4936 26.1352 13.7989 25.9419 14.0951 25.7351C14.2426 25.6298 14.3899 25.5245 14.5352 25.4155C14.6722 25.3102 14.809 25.2016 14.9413 25.0926C14.9451 25.087 14.95 25.0823 14.9556 25.0787C14.9942 25.0506 15.029 25.0188 15.0676 24.9873C15.203 24.8749 15.3347 24.7558 15.4644 24.6363C14.443 25.3286 13.237 25.698 12.0031 25.6965H11.9997C9.38811 26.3058 5.59344 26.3776 1.07572 24.0923C1.00768 24.0652 0.940008 24.0334 0.877723 23.9985Z" fill="white"/>
</g>
<g style="mix-blend-mode:multiply" opacity="0.1">
<path d="M-4.3869e-05 9.65537V13.2253C0.000430107 13.2253 0.000905514 13.2254 0.00134563 13.2255C0.00178576 13.2257 0.00215673 13.226 0.00249529 13.2264C0.00279951 13.2267 0.00307226 13.2271 0.00320768 13.2276C0.00334311 13.228 0.00340986 13.2285 0.00334215 13.229H0.00706625C0.098125 13.2886 0.189557 13.3448 0.277907 13.4081C0.492182 13.5435 0.699349 13.6887 0.902792 13.8363C1.41299 14.2079 1.89841 14.6124 2.35597 15.0471C2.44364 15.128 2.53169 15.2123 2.61936 15.2966C2.63324 15.3105 2.64743 15.3281 2.6613 15.3423C2.78791 15.4648 2.90709 15.5877 3.02286 15.7147C3.14947 15.848 3.27231 15.9855 3.39519 16.1209C3.49336 16.2366 3.59525 16.3558 3.69341 16.4753C3.75671 16.5525 3.81968 16.6334 3.88298 16.7139C3.93579 16.7772 3.98456 16.8439 4.03399 16.9072C4.10778 17.0054 4.18154 17.1036 4.25161 17.2021C4.27632 17.2359 4.3007 17.2698 4.32168 17.3002C4.41308 17.4265 4.50451 17.5565 4.58846 17.6898C4.60092 17.7053 4.61222 17.7218 4.62228 17.7389C4.71706 17.8828 4.80849 18.027 4.89617 18.1742C4.98045 18.3042 5.0576 18.4339 5.12767 18.5676C5.15949 18.6167 5.18759 18.6691 5.21568 18.722C5.28914 18.8482 5.35955 18.9745 5.41879 19.1011C5.4259 19.115 5.433 19.1255 5.43977 19.1397C5.52068 19.2869 5.59447 19.4379 5.66454 19.5889C5.66454 19.596 5.66793 19.5994 5.67165 19.6065C5.72412 19.708 5.76985 19.8096 5.81555 19.9111C5.80506 19.7757 5.80167 19.6373 5.80167 19.5005V17.9468C4.59713 14.8704 2.70044 12.1126 0.258612 9.88724C0.175339 9.80905 0.0876298 9.73255 -4.3869e-05 9.65537Z" fill="white"/>
</g>
<g style="mix-blend-mode:screen" opacity="0.6">
<path d="M16.9654 15.5298C18.4 16.7355 19.5778 18.2173 20.4286 19.887C21.2795 21.5567 21.7861 23.3804 21.9184 25.2498C21.9218 25.1973 21.9289 25.0324 21.936 24.783C21.9411 24.5957 21.9364 24.4082 21.9218 24.2214C21.9145 23.9783 21.8935 23.7357 21.8588 23.4949C21.8446 23.3595 21.825 23.2241 21.806 23.0806C21.7779 22.9401 21.7498 22.7925 21.7217 22.6405C21.6655 22.3386 21.5779 22.0261 21.4868 21.7032C21.3778 21.3874 21.2901 21.0502 21.1463 20.7273C21.0163 20.3972 20.8619 20.0743 20.7062 19.7514C20.5309 19.4355 20.3657 19.116 20.1727 18.8212C19.9903 18.5192 19.7797 18.242 19.5831 17.9718C19.3759 17.7048 19.1687 17.4556 18.9619 17.2312C18.7702 17.0161 18.5675 16.811 18.3546 16.6168C18.1613 16.4306 17.9755 16.2725 17.8032 16.1358C17.6605 16.0159 17.5117 15.9035 17.3574 15.799C17.1373 15.6405 16.9969 15.5491 16.9654 15.5298Z" fill="white"/>
</g>
<g style="mix-blend-mode:screen" opacity="0.6">
<path d="M0.00711632 13.2279H0.00339222C0.0247183 13.2489 0.1195 13.3403 0.277244 13.4804C0.452929 13.6385 0.705458 13.8667 1.00741 14.1371C1.155 14.2773 1.31206 14.4249 1.48132 14.5829C1.65057 14.741 1.81475 14.9164 1.9972 15.0846C2.34823 15.4427 2.71687 15.8253 3.0679 16.222C3.42604 16.6187 3.75947 17.0344 4.07192 17.419C4.2195 17.6221 4.37657 17.8052 4.51197 17.9944C4.64738 18.1836 4.77872 18.3559 4.89821 18.5174C5.13686 18.8441 5.33015 19.1179 5.46691 19.318C5.56846 19.4652 5.64225 19.5637 5.67407 19.6057C4.43226 16.9827 2.46587 14.7697 0.00711632 13.2279Z" fill="white"/>
</g>
<g style="mix-blend-mode:screen" opacity="0.6">
<path d="M6.77842 28.0286C5.58186 28.0303 4.39113 27.8625 3.24169 27.53H3.22782C3.22782 27.53 3.40689 27.6105 3.73321 27.7267C4.18258 27.887 4.64393 28.0115 5.11296 28.099C5.78013 28.2293 6.45846 28.2939 7.13825 28.292C7.52155 28.2947 7.9047 28.2772 8.28613 28.2395C8.67576 28.1972 9.07249 28.141 9.46211 28.0604C9.85173 27.9799 10.238 27.8742 10.613 27.7558C10.8 27.7009 10.9839 27.6364 11.1641 27.5625C11.3432 27.4948 11.5189 27.4223 11.6908 27.3448C12.0195 27.2036 12.3395 27.0431 12.6492 26.8641C12.9299 26.7102 13.2018 26.5407 13.4636 26.3564C13.6871 26.2049 13.9027 26.0421 14.1095 25.8686C14.299 25.721 14.45 25.5737 14.5797 25.4624C14.8011 25.2447 14.9307 25.1076 14.952 25.0832C12.6562 26.9913 9.76369 28.0336 6.77842 28.0286Z" fill="white"/>
</g>
<g style="mix-blend-mode:multiply" opacity="0.3">
<path d="M0.000245094 7.79488V19.5018C0.00082016 22.296 0.978024 25.0022 2.76281 27.1521C2.52077 26.8221 2.29262 26.4886 2.07834 26.141C1.86024 25.788 1.66103 25.4237 1.48155 25.0496C1.32719 24.7372 1.19382 24.4176 1.07095 24.0947C1.04623 24.0348 1.02525 23.9718 1.00054 23.9085C0.856061 23.5221 0.731795 23.1285 0.628178 22.7292C0.522902 22.3314 0.438612 21.9284 0.37565 21.5217C0.319458 21.1155 0.27413 20.7073 0.256189 20.3C0.238248 19.8928 0.241939 19.4856 0.245662 19.0645L0.259575 17.812L0.277178 15.3091V12.8061C0.277178 11.8335 0.271287 10.8612 0.259575 9.88923C0.25619 9.27111 0.245664 8.65334 0.238555 8.03928L0.475543 8.04267L0.94942 8.09514L1.41385 8.18823L1.87388 8.31787L2.32308 8.48984L2.75468 8.70039L3.16901 8.94615L3.56202 9.22711L3.93066 9.53616L4.2783 9.87467L4.59786 10.2399L4.88559 10.6329L5.13845 11.0544L5.35611 11.4944L5.53857 11.9507L5.68243 12.4246C5.41302 11.1168 4.70056 9.94193 3.66537 9.09844C2.63015 8.25498 1.33559 7.79454 0.000245094 7.79488Z" fill="white"/>
</g>
<g style="mix-blend-mode:multiply" opacity="0.3">
<path d="M11.9981 7.50005H9.09543V11.6177C9.14079 10.9332 9.1655 10.245 9.19699 9.56055C9.22508 8.93228 9.24607 8.30807 9.26469 7.67912L11.4833 7.73532C11.8834 7.74242 12.273 7.7387 12.6592 7.76917C13.0475 7.79655 13.4341 7.84344 13.8176 7.90965C14.2001 7.96966 14.5787 8.05172 14.9516 8.15541C15.3303 8.2554 15.7032 8.37611 16.0687 8.51693C16.4303 8.63981 16.785 8.81177 17.1394 8.96647C17.4799 9.15231 17.8343 9.31378 18.1573 9.53144C18.4958 9.72439 18.8069 9.95627 19.1264 10.181C19.2842 10.2934 19.4311 10.4231 19.5827 10.5426C19.7373 10.6615 19.8849 10.7892 20.0248 10.9251C20.1653 11.0584 20.3129 11.1884 20.4497 11.3252L20.8559 11.75C20.9913 11.8854 21.1087 12.0449 21.2384 12.1924C21.3613 12.3431 21.4913 12.4873 21.6036 12.6488L21.951 13.1227L22.2671 13.6176C22.3792 13.7824 22.4702 13.9561 22.5653 14.1253C22.6605 14.2946 22.7654 14.4659 22.8463 14.6449C23.0156 14.9997 23.1868 15.3558 23.3202 15.7299C23.4712 16.0877 23.5727 16.4634 23.6993 16.832C23.2028 14.6704 22.1184 12.6882 20.5659 11.1041C19.0135 9.52017 17.0534 8.39612 14.9022 7.85616C13.9527 7.61748 12.9772 7.49785 11.9981 7.50005Z" fill="white"/>
</g>
<path d="M33.9541 29C33.4741 29 33.2341 28.81 33.2341 28.43V28.31C33.2341 28.07 33.4341 27.71 33.8341 27.23C34.2341 26.73 34.4341 26.23 34.4341 25.73V10.97C34.4341 10.47 34.2341 9.98 33.8341 9.5C33.4341 9 33.2341 8.63 33.2341 8.39V8.27C33.2341 7.89 33.4741 7.7 33.9541 7.7H40.4941C40.9741 7.7 41.2141 7.89 41.2141 8.27V8.39C41.2141 8.63 40.9941 9 40.5541 9.5C40.1341 9.98 39.9241 10.47 39.9241 10.97L39.8941 17.09H47.7841L47.8141 10.97C47.8141 10.47 47.6141 9.98 47.2141 9.5C46.8341 9 46.6441 8.63 46.6441 8.39V8.27C46.6441 7.89 46.8741 7.7 47.3341 7.7H53.8741C54.3541 7.7 54.5941 7.89 54.5941 8.27V8.39C54.5941 8.63 54.3641 9 53.9041 9.5C53.4641 9.98 53.2441 10.47 53.2441 10.97V25.73C53.2441 26.23 53.4641 26.73 53.9041 27.23C54.3641 27.71 54.5941 28.07 54.5941 28.31V28.43C54.5941 28.81 54.3541 29 53.8741 29H47.3341C46.8741 29 46.6441 28.81 46.6441 28.43V28.31C46.6441 28.07 46.8341 27.71 47.2141 27.23C47.6141 26.73 47.8141 26.23 47.8141 25.73L47.7841 19.43H39.9241L39.8941 25.73C39.8941 26.23 40.1141 26.73 40.5541 27.23C40.9941 27.71 41.2141 28.07 41.2141 28.31V28.43C41.2141 28.81 40.9741 29 40.4941 29H33.9541ZM70.3537 25.73C70.4137 26.21 70.5237 26.6 70.6837 26.9C70.8637 27.18 71.0337 27.36 71.1937 27.44C71.3737 27.52 71.5337 27.62 71.6737 27.74C71.8137 27.86 71.8837 28.01 71.8837 28.19C71.8837 28.85 70.7537 29.18 68.4937 29.18C67.5737 29.18 66.8837 29.07 66.4237 28.85C65.9837 28.63 65.7037 28.26 65.5837 27.74C64.8237 28.78 63.5537 29.3 61.7737 29.3C60.0937 29.3 58.7237 28.91 57.6637 28.13C56.6237 27.35 56.1037 26.22 56.1037 24.74C56.1037 23.3 56.6237 22.18 57.6637 21.38C58.7037 20.56 59.9837 20.15 61.5037 20.15C62.6837 20.15 63.6937 20.4 64.5337 20.9V20.81C64.3337 18.83 64.1037 17.49 63.8437 16.79C63.6037 16.09 63.1237 15.74 62.4037 15.74C61.9437 15.74 61.5737 15.95 61.2937 16.37C61.0137 16.79 60.8037 17.25 60.6637 17.75C60.5437 18.25 60.3037 18.71 59.9437 19.13C59.5837 19.55 59.1037 19.76 58.5037 19.76C57.8837 19.76 57.3737 19.58 56.9737 19.22C56.5937 18.86 56.4037 18.39 56.4037 17.81C56.4037 16.65 56.9837 15.78 58.1437 15.2C59.3037 14.6 60.7237 14.3 62.4037 14.3C64.4037 14.3 66.0537 14.85 67.3537 15.95C68.6737 17.03 69.4537 18.5 69.6937 20.36L70.3537 25.73ZM63.4237 27.77C63.8837 27.77 64.2537 27.55 64.5337 27.11C64.8337 26.67 64.9837 26.17 64.9837 25.61L64.8637 24.23C64.6637 22.57 64.0437 21.74 63.0037 21.74C62.5437 21.74 62.1737 21.93 61.8937 22.31C61.6137 22.67 61.4737 23.16 61.4737 23.78C61.4737 24.9 61.6437 25.85 61.9837 26.63C62.3437 27.39 62.8237 27.77 63.4237 27.77ZM79.1671 29.27C77.2471 29.27 75.6671 28.95 74.4271 28.31C73.1871 27.65 72.5671 26.8 72.5671 25.76C72.5671 25.12 72.7571 24.64 73.1371 24.32C73.5371 24 74.0571 23.84 74.6971 23.84C75.3771 23.84 75.9171 24.06 76.3171 24.5C76.7171 24.92 76.9871 25.39 77.1271 25.91C77.2671 26.41 77.5071 26.88 77.8471 27.32C78.1871 27.74 78.6271 27.95 79.1671 27.95C80.2471 27.95 80.7871 27.4 80.7871 26.3C80.7871 25.58 80.5071 25.01 79.9471 24.59C79.4071 24.17 78.7471 23.85 77.9671 23.63C77.1871 23.41 76.4071 23.16 75.6271 22.88C74.8671 22.6 74.2071 22.13 73.6471 21.47C73.1071 20.81 72.8371 19.94 72.8371 18.86C72.8371 17.52 73.4271 16.43 74.6071 15.59C75.7871 14.73 77.3071 14.3 79.1671 14.3C81.0271 14.3 82.5371 14.65 83.6971 15.35C84.8771 16.05 85.4671 16.9 85.4671 17.9C85.4671 18.42 85.2671 18.86 84.8671 19.22C84.4871 19.56 84.0171 19.73 83.4571 19.73C82.7971 19.73 82.2771 19.52 81.8971 19.1C81.5171 18.68 81.2571 18.22 81.1171 17.72C80.9971 17.2 80.7971 16.73 80.5171 16.31C80.2571 15.89 79.8971 15.68 79.4371 15.68C78.9971 15.68 78.6471 15.85 78.3871 16.19C78.1471 16.53 78.0271 16.93 78.0271 17.39C78.0271 18.13 78.2871 18.73 78.8071 19.19C79.3471 19.65 79.9871 20 80.7271 20.24C81.4871 20.48 82.2371 20.74 82.9771 21.02C83.7371 21.3 84.3771 21.76 84.8971 22.4C85.4371 23.02 85.7071 23.84 85.7071 24.86C85.7071 26.14 85.1171 27.2 83.9371 28.04C82.7771 28.86 81.1871 29.27 79.1671 29.27ZM103.148 25.7C103.188 26.2 103.378 26.7 103.718 27.2C104.058 27.68 104.228 28.05 104.228 28.31V28.43C104.228 28.81 103.988 29 103.508 29H97.5384C97.0584 29 96.8184 28.81 96.8184 28.43V28.31C96.8184 28.07 96.9984 27.7 97.3584 27.2C97.7384 26.7 97.9184 26.2 97.8984 25.7L97.5984 20.12C97.5184 18.74 97.3184 17.76 96.9984 17.18C96.6784 16.58 96.1784 16.28 95.4984 16.28C94.8584 16.28 94.3684 16.54 94.0284 17.06C93.7084 17.58 93.5484 18.29 93.5484 19.19V25.73C93.5484 26.23 93.7684 26.73 94.2084 27.23C94.6684 27.71 94.8984 28.07 94.8984 28.31V28.43C94.8984 28.81 94.6584 29 94.1784 29H87.6684C87.2084 29 86.9784 28.81 86.9784 28.43V28.31C86.9784 28.07 87.1984 27.71 87.6384 27.23C88.0784 26.73 88.2984 26.23 88.2984 25.73V11.81C88.2984 11.29 88.0484 10.82 87.5484 10.4C87.0684 9.98 86.8284 9.65 86.8284 9.41V9.32C86.8284 8.96 87.0584 8.68 87.5184 8.48L92.2584 6.38C92.5984 6.22 92.8684 6.2 93.0684 6.32C93.2884 6.44 93.3984 6.67 93.3984 7.01V15.71C94.2984 14.77 95.5184 14.3 97.0584 14.3C98.5384 14.3 99.8184 14.78 100.898 15.74C101.978 16.68 102.598 18.2 102.758 20.3L103.148 25.7ZM117.681 24.26C117.901 24.04 118.141 23.98 118.401 24.08C118.681 24.16 118.811 24.36 118.791 24.68C118.751 25.68 118.171 26.7 117.051 27.74C115.931 28.78 114.481 29.3 112.701 29.3C110.521 29.3 108.741 28.6 107.361 27.2C105.981 25.8 105.291 23.97 105.291 21.71C105.291 19.55 106.011 17.78 107.451 16.4C108.911 15 110.651 14.3 112.671 14.3C114.491 14.3 115.901 14.72 116.901 15.56C117.901 16.4 118.401 17.35 118.401 18.41C118.401 19.25 118.011 19.87 117.231 20.27L111.261 23.63C112.081 24.93 113.221 25.58 114.681 25.58C115.301 25.58 115.881 25.46 116.421 25.22C116.981 24.96 117.401 24.64 117.681 24.26ZM112.131 15.77C111.531 15.77 111.041 16.07 110.661 16.67C110.301 17.27 110.121 18.02 110.121 18.92C110.121 20.12 110.271 21.17 110.571 22.07L113.361 20.39C113.881 20.03 114.141 19.52 114.141 18.86C114.141 18.2 113.971 17.52 113.631 16.82C113.311 16.12 112.811 15.77 112.131 15.77ZM132.359 24.26C132.579 24.04 132.819 23.98 133.079 24.08C133.359 24.16 133.489 24.36 133.469 24.68C133.429 25.68 132.849 26.7 131.729 27.74C130.609 28.78 129.159 29.3 127.379 29.3C125.199 29.3 123.419 28.6 122.039 27.2C120.659 25.8 119.969 23.97 119.969 21.71C119.969 19.55 120.689 17.78 122.129 16.4C123.589 15 125.329 14.3 127.349 14.3C129.169 14.3 130.579 14.72 131.579 15.56C132.579 16.4 133.079 17.35 133.079 18.41C133.079 19.25 132.689 19.87 131.909 20.27L125.939 23.63C126.759 24.93 127.899 25.58 129.359 25.58C129.979 25.58 130.559 25.46 131.099 25.22C131.659 24.96 132.079 24.64 132.359 24.26ZM126.809 15.77C126.209 15.77 125.719 16.07 125.339 16.67C124.979 17.27 124.799 18.02 124.799 18.92C124.799 20.12 124.949 21.17 125.249 22.07L128.039 20.39C128.559 20.03 128.819 19.52 128.819 18.86C128.819 18.2 128.649 17.52 128.309 16.82C127.989 16.12 127.489 15.77 126.809 15.77ZM144.787 14.3C145.647 14.3 146.327 14.58 146.827 15.14C147.347 15.7 147.607 16.41 147.607 17.27C147.607 19.15 146.837 20.09 145.297 20.09C144.677 20.09 144.207 19.95 143.887 19.67C143.567 19.37 143.377 19.04 143.317 18.68C143.277 18.32 143.177 18 143.017 17.72C142.857 17.42 142.617 17.27 142.297 17.27C141.557 17.27 141.187 18.23 141.187 20.15V25.73C141.187 26.23 141.447 26.73 141.967 27.23C142.507 27.71 142.777 28.07 142.777 28.31V28.43C142.777 28.81 142.537 29 142.057 29H135.607C135.127 29 134.887 28.81 134.887 28.43V28.31C134.887 28.07 135.087 27.71 135.487 27.23C135.887 26.73 136.087 26.23 136.087 25.73V19.76C136.087 19.36 135.967 19.02 135.727 18.74C135.487 18.46 135.247 18.22 135.007 18.02C134.767 17.82 134.647 17.6 134.647 17.36V17.27C134.647 16.93 134.877 16.64 135.337 16.4L139.567 14.42C139.967 14.28 140.247 14.27 140.407 14.39C140.567 14.51 140.647 14.74 140.647 15.08V17.27C141.327 15.29 142.707 14.3 144.787 14.3ZM162.434 25.73C162.494 26.21 162.604 26.6 162.764 26.9C162.944 27.18 163.114 27.36 163.274 27.44C163.454 27.52 163.614 27.62 163.754 27.74C163.894 27.86 163.964 28.01 163.964 28.19C163.964 28.85 162.834 29.18 160.574 29.18C159.654 29.18 158.964 29.07 158.504 28.85C158.064 28.63 157.784 28.26 157.664 27.74C156.904 28.78 155.634 29.3 153.854 29.3C152.174 29.3 150.804 28.91 149.744 28.13C148.704 27.35 148.184 26.22 148.184 24.74C148.184 23.3 148.704 22.18 149.744 21.38C150.784 20.56 152.064 20.15 153.584 20.15C154.764 20.15 155.774 20.4 156.614 20.9V20.81C156.414 18.83 156.184 17.49 155.924 16.79C155.684 16.09 155.204 15.74 154.484 15.74C154.024 15.74 153.654 15.95 153.374 16.37C153.094 16.79 152.884 17.25 152.744 17.75C152.624 18.25 152.384 18.71 152.024 19.13C151.664 19.55 151.184 19.76 150.584 19.76C149.964 19.76 149.454 19.58 149.054 19.22C148.674 18.86 148.484 18.39 148.484 17.81C148.484 16.65 149.064 15.78 150.224 15.2C151.384 14.6 152.804 14.3 154.484 14.3C156.484 14.3 158.134 14.85 159.434 15.95C160.754 17.03 161.534 18.5 161.774 20.36L162.434 25.73ZM155.504 27.77C155.964 27.77 156.334 27.55 156.614 27.11C156.914 26.67 157.064 26.17 157.064 25.61L156.944 24.23C156.744 22.57 156.124 21.74 155.084 21.74C154.624 21.74 154.254 21.93 153.974 22.31C153.694 22.67 153.554 23.16 153.554 23.78C153.554 24.9 153.724 25.85 154.064 26.63C154.424 27.39 154.904 27.77 155.504 27.77Z" fill="white"/>
</svg>
