<svg width="52" height="52" viewBox="0 0 52 52" fill="none" xmlns="http://www.w3.org/2000/svg">
<rect width="52" height="52" rx="24" fill="#F1F7FE"/>
<path d="M36.0133 17.8L28.0933 13.2267C26.8 12.48 25.2 12.48 23.8933 13.2267L15.9866 17.8C14.6933 18.5467 13.8933 19.9334 13.8933 21.44V30.56C13.8933 32.0534 14.6933 33.44 15.9866 34.2L23.9066 38.7734C25.2 39.52 26.8 39.52 28.1066 38.7734L36.0266 34.2C37.32 33.4534 38.12 32.0667 38.12 30.56V21.44C38.1066 19.9334 37.3066 18.56 36.0133 17.8ZM26 19.7867C27.72 19.7867 29.1066 21.1734 29.1066 22.8934C29.1066 24.6134 27.72 26 26 26C24.28 26 22.8933 24.6134 22.8933 22.8934C22.8933 21.1867 24.28 19.7867 26 19.7867ZM29.5733 32.2134H22.4266C21.3466 32.2134 20.72 31.0134 21.32 30.12C22.2266 28.7734 23.9866 27.8667 26 27.8667C28.0133 27.8667 29.7733 28.7734 30.68 30.12C31.28 31 30.64 32.2134 29.5733 32.2134Z" fill="#1374E7"/>
</svg>
