<svg width="53" height="52" viewBox="0 0 53 52" fill="none" xmlns="http://www.w3.org/2000/svg">
<rect x="0.666687" width="52" height="52" rx="24" fill="#F1F7FE"/>
<path d="M20.8667 37.88C20.8267 37.88 20.7733 37.9067 20.7333 37.9067C18.1467 36.6267 16.04 34.5067 14.7467 31.92C14.7467 31.88 14.7733 31.8267 14.7733 31.7867C16.4 32.2667 18.08 32.6267 19.7467 32.9067C20.04 34.5867 20.3867 36.2533 20.8667 37.88Z" fill="#1374E7"/>
<path d="M38.5867 31.9333C37.2667 34.5867 35.0667 36.7333 32.3867 38.0267C32.8934 36.3333 33.32 34.6267 33.6 32.9067C35.28 32.6267 36.9334 32.2667 38.56 31.7867C38.5467 31.84 38.5867 31.8933 38.5867 31.9333Z" fill="#1374E7"/>
<path d="M38.6934 20.28C37.0134 19.7733 35.32 19.36 33.6 19.0667C33.32 17.3467 32.9067 15.64 32.3867 13.9733C35.1467 15.2933 37.3734 17.52 38.6934 20.28Z" fill="#1374E7"/>
<path d="M20.8667 14.12C20.3867 15.7467 20.04 17.4 19.76 19.08C18.04 19.3467 16.3333 19.7734 14.64 20.28C15.9333 17.6 18.08 15.4 20.7333 14.08C20.7733 14.08 20.8267 14.12 20.8667 14.12Z" fill="#1374E7"/>
<path d="M31.32 18.7867C28.2267 18.44 25.1067 18.44 22.0134 18.7867C22.3467 16.96 22.7734 15.1334 23.3734 13.3734C23.4 13.2667 23.3867 13.1867 23.4 13.08C24.4534 12.8267 25.5334 12.6667 26.6667 12.6667C27.7867 12.6667 28.88 12.8267 29.92 13.08C29.9334 13.1867 29.9334 13.2667 29.96 13.3734C30.56 15.1467 30.9867 16.96 31.32 18.7867Z" fill="#1374E7"/>
<path d="M19.4533 30.6533C17.6133 30.32 15.8 29.8933 14.04 29.2933C13.9333 29.2667 13.8533 29.28 13.7467 29.2667C13.4933 28.2133 13.3333 27.1333 13.3333 26C13.3333 24.88 13.4933 23.7867 13.7467 22.7467C13.8533 22.7333 13.9333 22.7333 14.04 22.7067C15.8133 22.12 17.6133 21.68 19.4533 21.3467C19.12 24.44 19.12 27.56 19.4533 30.6533Z" fill="#1374E7"/>
<path d="M40 26C40 27.1333 39.84 28.2133 39.5867 29.2667C39.48 29.28 39.4 29.2667 39.2933 29.2933C37.52 29.88 35.7067 30.32 33.88 30.6533C34.2267 27.56 34.2267 24.44 33.88 21.3467C35.7067 21.68 37.5333 22.1067 39.2933 22.7067C39.4 22.7333 39.48 22.7467 39.5867 22.7467C39.84 23.8 40 24.88 40 26Z" fill="#1374E7"/>
<path d="M31.32 33.2133C30.9867 35.0533 30.56 36.8667 29.96 38.6267C29.9334 38.7333 29.9334 38.8133 29.92 38.92C28.88 39.1733 27.7867 39.3333 26.6667 39.3333C25.5334 39.3333 24.4534 39.1733 23.4 38.92C23.3867 38.8133 23.4 38.7333 23.3734 38.6267C22.7867 36.8533 22.3467 35.0533 22.0134 33.2133C23.56 33.3867 25.1067 33.5067 26.6667 33.5067C28.2267 33.5067 29.7867 33.3867 31.32 33.2133Z" fill="#1374E7"/>
<path d="M31.6845 31.0178C28.3497 31.4385 24.9837 31.4385 21.6489 31.0178C21.2282 27.683 21.2282 24.317 21.6489 20.9822C24.9837 20.5615 28.3497 20.5615 31.6845 20.9822C32.1052 24.317 32.1052 27.683 31.6845 31.0178Z" fill="#1374E7"/>
</svg>
