<svg width="61" height="60" viewBox="0 0 61 60" fill="none" xmlns="http://www.w3.org/2000/svg">
<path d="M29.9956 0.000179291H22.7389V11.9791C23.0774 12.0054 23.432 12.0409 23.7738 12.0841C24.3442 12.1374 24.9146 12.2161 25.4765 12.3126C25.7922 12.3565 26.0994 12.409 26.4074 12.4708C26.6097 12.5148 26.8111 12.5495 27.0134 12.5935C27.3908 12.6638 27.7682 12.7518 28.1448 12.8474C29.3607 13.136 30.5593 13.4934 31.7347 13.9179C32.1731 14.0753 32.6117 14.242 33.0506 14.4181C33.3316 14.5323 33.6126 14.655 33.8969 14.7777C35.047 15.2775 36.1689 15.84 37.2575 16.4627V16.3222C38.2829 16.8698 39.2428 17.5321 40.1187 18.2965C40.1271 18.2965 40.1365 18.3058 40.1449 18.3143C40.926 18.8669 41.6809 19.4551 42.418 20.0695C43.1373 20.6754 43.8313 21.3067 44.4981 21.9736C44.8366 22.307 45.1751 22.6506 45.4891 23.0009C45.5078 23.0105 45.5232 23.0256 45.5331 23.0441C45.8496 23.3826 46.1475 23.7118 46.4369 24.0596C47.0691 24.7798 47.6572 25.5169 48.2141 26.2887C48.5128 26.6924 48.7938 27.1053 49.0739 27.5268C49.2939 27.8509 49.497 28.1674 49.6976 28.5008C49.7061 28.5093 49.7061 28.5178 49.7145 28.5271C49.917 28.843 50.1103 29.1677 50.2942 29.5011C50.7766 30.3525 51.2327 31.2301 51.6483 32.1246C51.8234 32.502 51.9995 32.8794 52.156 33.2662C52.481 34.038 52.7797 34.8191 53.0429 35.6086C53.1394 35.8896 53.2265 36.1706 53.3146 36.4549C53.4906 37.016 53.6531 37.5864 53.7969 38.1576C53.8503 38.359 53.9027 38.5697 53.9467 38.7712C54.0432 39.1486 54.1219 39.5176 54.2006 39.895C54.2802 40.3071 54.3589 40.7201 54.4206 41.1322C54.4993 41.5884 54.5696 42.0538 54.6221 42.51C54.6745 42.8959 54.7067 43.2716 54.7448 43.6507C54.7625 43.809 54.7718 43.9579 54.7803 44.1162C54.7936 44.2002 54.8023 44.285 54.8065 44.3701C54.8243 44.5808 54.8328 44.7932 54.8421 45.0022C54.877 45.5726 54.8945 46.1517 54.8945 46.7396C57.1777 43.3529 58.7439 39.5349 59.4969 35.5205C60.2499 31.506 60.1738 27.38 59.2731 23.3961C59.2647 23.3792 59.2647 23.353 59.2562 23.3352C58.0148 17.9311 55.3038 12.9754 51.4226 9.0154C47.5416 5.05546 42.6413 2.24534 37.2634 0.895538C34.8874 0.296463 32.446 -0.00430298 29.9956 0.000179291Z" fill="#1374E7"/>
<path d="M22.7388 11.9792V26.7043C22.7284 27.6639 22.9084 28.6161 23.2685 29.5056C23.6285 30.3952 24.1615 31.2045 24.8364 31.8868C25.5113 32.569 26.3148 33.1107 27.2005 33.4803C28.0861 33.85 29.0363 34.0403 29.9959 34.0403C30.9556 34.0403 31.9058 33.85 32.7914 33.4803C33.677 33.1107 34.4806 32.569 35.1555 31.8868C35.8304 31.2045 36.3633 30.3952 36.7234 29.5056C37.0834 28.6161 37.2634 27.6639 37.2531 26.7043V16.4645C32.8044 13.9186 27.8482 12.3871 22.7388 11.9792Z" fill="#1374E7"/>
<path d="M40.1409 18.3151C41.8185 19.7658 43.1642 21.5606 44.0864 23.5777C45.0086 25.5948 45.4856 27.7868 45.4852 30.0046C45.4846 31.0328 45.3848 32.0584 45.1872 33.0673C44.9816 34.0684 44.6789 35.047 44.2834 35.9894C43.1113 38.7682 41.1571 41.1464 38.6583 42.8349C38.6583 42.8434 38.6582 42.8434 38.6489 42.8434C38.2453 43.2208 37.8247 43.5898 37.394 43.9435C37.3873 43.9443 37.3812 43.9477 37.377 43.9528C33.3652 47.2799 28.6015 49.5767 23.4999 50.6436C18.3984 51.7105 13.1135 51.5153 8.10462 50.0748C7.93536 50.0401 7.76603 49.9901 7.59678 49.9343C12.689 55.6685 19.7864 59.2315 27.427 59.8895C35.0676 60.5474 42.6695 58.2501 48.6671 53.4708C51.069 51.5539 53.167 49.2844 54.8897 46.7396C54.8763 39.3898 52.5386 32.2327 48.2109 26.292C45.966 23.2176 43.2412 20.5242 40.1409 18.3151Z" fill="#1374E7"/>
<path d="M1.14441e-05 0.737202V14.313C0.00119591 14.313 0.00238514 14.3133 0.00348473 14.3137C0.00458527 14.3142 0.00551224 14.3149 0.00635815 14.3158C0.00712013 14.3167 0.00780201 14.3177 0.00814056 14.3189C0.00847912 14.32 0.00864506 14.3212 0.00847626 14.3224H0.017786C0.245433 14.4713 0.474011 14.6118 0.694888 14.77C1.23058 15.1085 1.74849 15.4716 2.2571 15.8406C3.5326 16.7696 4.74614 17.7808 5.89005 18.8677C6.10923 19.0699 6.32934 19.2806 6.54853 19.4914C6.58322 19.5261 6.61868 19.5701 6.65338 19.6056C6.96989 19.912 7.26786 20.2192 7.55728 20.5365C7.87379 20.8699 8.1809 21.2135 8.48809 21.552C8.73351 21.8415 8.98824 22.1393 9.23366 22.4381C9.39191 22.631 9.54932 22.8333 9.70757 23.0347C9.83959 23.193 9.96153 23.3597 10.0851 23.5179C10.2696 23.7633 10.454 24.0088 10.6292 24.255C10.6909 24.3396 10.7519 24.4243 10.8043 24.5004C11.0328 24.8161 11.2614 25.1411 11.4713 25.4745C11.5024 25.5133 11.5307 25.5543 11.5558 25.5972C11.7928 25.9569 12.0214 26.3174 12.2405 26.6855C12.4513 27.0105 12.6441 27.3346 12.8193 27.6689C12.8988 27.7916 12.9691 27.9227 13.0393 28.0548C13.223 28.3704 13.399 28.6861 13.5471 29.0026C13.5649 29.0373 13.5826 29.0635 13.5996 29.0991C13.8018 29.4672 13.9863 29.8446 14.1615 30.2221C14.1615 30.2398 14.1699 30.2483 14.1793 30.2661C14.3104 30.5199 14.4248 30.7738 14.539 31.0277C14.5128 30.6892 14.5043 30.3431 14.5043 30.0012V15.2507C14.5035 14.2632 14.4034 13.2782 14.2055 12.3108C13.5318 9.04122 11.7505 6.10433 9.16257 3.99576C6.57451 1.88728 3.3382 0.736271 1.14441e-05 0.737202Z" fill="#1374E7"/>
<path d="M0.000751495 14.3132V30.0047C0.00218964 36.9903 2.4452 43.7556 6.90715 49.1304C7.12634 49.4021 7.35492 49.6746 7.59188 49.9378C7.73049 49.9841 7.87182 50.0223 8.01501 50.052C8.03481 50.0683 8.05952 50.0776 8.08525 50.0782H8.10209C8.42706 50.1747 8.76048 50.2627 9.09391 50.3507C9.14638 50.3592 9.20816 50.377 9.26994 50.3939C9.5856 50.4734 9.91065 50.5437 10.2348 50.6139C10.7002 50.7189 11.1657 50.8069 11.6396 50.8856C11.8935 50.9296 12.1473 50.9643 12.4012 51.0083C12.7084 51.0523 13.0241 51.087 13.3397 51.1225C13.63 51.1581 13.9193 51.1843 14.2088 51.2072C14.3577 51.2156 14.5075 51.2334 14.6649 51.2419C15.4198 51.2943 16.1832 51.3214 16.9499 51.3214C17.1437 51.3214 17.3367 51.3214 17.5203 51.3121C17.6896 51.3121 17.8453 51.3036 18.012 51.2943C18.1029 51.3005 18.1941 51.2977 18.2845 51.2859C18.4072 51.2859 18.5299 51.2774 18.6526 51.2681C18.9776 51.2596 19.3017 51.2334 19.6267 51.2072C19.7587 51.1979 19.8899 51.1894 20.0219 51.1716C20.434 51.1369 20.8377 51.0929 21.2507 51.0311C21.5045 50.9964 21.7677 50.9609 22.0225 50.9177C22.0705 50.9174 22.1182 50.9082 22.1629 50.8907C22.3559 50.8644 22.5581 50.8297 22.7552 50.7942C23.5008 50.663 24.2473 50.4963 24.9751 50.3033C25.1951 50.25 25.4143 50.1891 25.625 50.1273C26.8075 49.7941 27.9706 49.3958 29.109 48.9341C29.4331 48.8021 29.7497 48.6616 30.0653 48.511C30.7677 48.2038 31.4523 47.8619 32.1277 47.4954C32.4086 47.3549 32.6804 47.1975 32.9529 47.0393C33.734 46.5916 34.4972 46.1084 35.2377 45.5913C35.6067 45.3281 35.9749 45.0649 36.3379 44.7924C36.6807 44.5293 37.0225 44.2576 37.3534 43.9851C37.3628 43.9712 37.375 43.9595 37.389 43.9504C37.4855 43.8802 37.5726 43.8006 37.6691 43.7219C38.0076 43.441 38.3368 43.1431 38.6609 42.8443C36.1075 44.5753 33.0927 45.4987 30.0078 45.4948H29.9993C27.9679 45.4948 25.9564 45.0941 24.0801 44.3157C22.2037 43.5372 20.4994 42.3961 19.0647 40.958C16.4089 38.3047 14.8061 34.7778 14.5541 31.0321C14.4399 30.7782 14.3256 30.5243 14.1945 30.2705C14.1852 30.2527 14.1767 30.2442 14.1767 30.2265C13.9922 29.849 13.8086 29.4716 13.6148 29.1035C13.5978 29.0679 13.5801 29.0417 13.5623 29.007C13.4049 28.6905 13.2289 28.3748 13.0545 28.0592C12.9843 27.9271 12.9141 27.796 12.8345 27.6733C12.6509 27.3348 12.4579 27.0149 12.2557 26.6899C12.0365 26.3218 11.8079 25.9613 11.5709 25.6016C11.5458 25.5587 11.5175 25.5176 11.4864 25.4789C11.2765 25.1539 11.0564 24.8298 10.8195 24.5048C10.767 24.4261 10.7061 24.3466 10.6444 24.2594C10.4692 24.0132 10.2847 23.7677 10.1002 23.5223C9.9775 23.3641 9.8548 23.1974 9.72278 23.0391C9.57384 22.8377 9.41558 22.6354 9.24887 22.4425C9.00345 22.1437 8.74864 21.8501 8.50322 21.5564C8.19602 21.2179 7.88891 20.8718 7.57241 20.5409C7.28299 20.2244 6.9851 19.9172 6.66859 19.61C6.6339 19.5745 6.59827 19.5305 6.56357 19.4958C6.34439 19.285 6.12444 19.0726 5.90526 18.8721C4.76127 17.7852 3.54764 16.774 2.27222 15.845C1.76447 15.4675 1.24562 15.1079 0.709927 14.7651C0.490746 14.6162 0.262333 14.4672 0.0329933 14.3268H0.0236855C0.0254631 14.3237 0.0259705 14.3202 0.0251236 14.3167C0.0242767 14.3133 0.0220833 14.3103 0.0190353 14.3086C0.0159874 14.3068 0.0123482 14.3063 0.00896454 14.3071C0.00549316 14.308 0.00261307 14.3102 0.000751495 14.3132Z" fill="#1374E7"/>
<g style="mix-blend-mode:multiply" opacity="0.1">
<path d="M45.4852 30.0045C45.4846 31.0326 45.3848 32.0582 45.1873 33.0672C47.3199 38.3673 48.6891 45.0461 48.662 53.4707C51.064 51.5538 53.1619 49.2843 54.8846 46.7395C54.8712 39.3897 52.5335 32.2326 48.2059 26.2919C45.9625 23.2178 43.2394 20.5245 40.141 18.315C41.8185 19.7657 43.1642 21.5605 44.0864 23.5776C45.0085 25.5947 45.4856 27.7867 45.4852 30.0045Z" fill="#1374E7"/>
</g>
<g style="mix-blend-mode:multiply" opacity="0.16">
<path d="M22.7392 11.9792V13.3129C28.1926 14.5811 33.2053 17.2908 37.2535 21.1587V16.4636C32.8047 13.9181 27.8485 12.3869 22.7392 11.9792Z" fill="#1374E7"/>
</g>
<g style="mix-blend-mode:multiply" opacity="0.1">
<path d="M2.19437 41.2465C3.34589 44.1024 4.93594 46.7613 6.90715 49.127C7.12634 49.3987 7.35492 49.6712 7.59188 49.9343C7.73049 49.9807 7.87182 50.0189 8.01501 50.0486C8.03481 50.0649 8.05952 50.0741 8.08525 50.0748H8.10209C8.42706 50.1713 8.76048 50.2593 9.09391 50.3473C9.14638 50.3558 9.20816 50.3736 9.26994 50.3905C9.5856 50.47 9.91065 50.5403 10.2348 50.6105C10.7002 50.7154 11.1657 50.8035 11.6396 50.8822C11.8935 50.9262 12.1473 50.9609 12.4012 51.0049C12.7084 51.0489 13.0241 51.0836 13.3397 51.1191C13.63 51.1547 13.9193 51.1809 14.2088 51.2037C14.3577 51.2122 14.5075 51.23 14.6649 51.2384C15.4198 51.2909 16.1832 51.318 16.9499 51.318C17.1437 51.318 17.3367 51.318 17.5203 51.3087C17.6896 51.3087 17.8453 51.3002 18.012 51.2909C18.1029 51.2971 18.1941 51.2942 18.2845 51.2825C18.4072 51.2825 18.5299 51.274 18.6526 51.2647C18.9776 51.2562 19.3017 51.23 19.6267 51.2037C19.7587 51.1944 19.8899 51.186 20.0219 51.1682C20.434 51.1335 20.8377 51.0895 21.2507 51.0277C21.5045 50.993 21.7677 50.9575 22.0225 50.9143C22.0705 50.9139 22.1182 50.9048 22.1629 50.8872C22.3559 50.861 22.5581 50.8263 22.7552 50.7908C23.5008 50.6596 24.2473 50.4929 24.9751 50.2999C25.1951 50.2466 25.4143 50.1857 25.625 50.1239C26.8075 49.7907 27.9706 49.3923 29.109 48.9307C29.4331 48.7987 29.7497 48.6582 30.0653 48.5075C30.7677 48.2003 31.4523 47.8584 32.1277 47.492C32.4086 47.3515 32.6804 47.1941 32.9529 47.0359C33.734 46.5882 34.4972 46.105 35.2377 45.5879C35.6067 45.3247 35.9749 45.0615 36.3379 44.789C36.6807 44.5258 37.0225 44.2542 37.3534 43.9817C37.3628 43.9678 37.375 43.956 37.389 43.947C37.4855 43.8767 37.5726 43.7972 37.6691 43.7185C38.0076 43.4375 38.3368 43.1396 38.6609 42.8409C36.1075 44.5718 33.0927 45.4953 30.0078 45.4914H29.9993C23.4703 47.0147 13.9837 47.1941 2.68935 41.481C2.51925 41.4133 2.35008 41.3337 2.19437 41.2465Z" fill="#1374E7"/>
</g>
<g style="mix-blend-mode:multiply" opacity="0.1">
<path d="M1.14441e-05 5.3883V14.313C0.00119591 14.313 0.00238514 14.3133 0.00348473 14.3137C0.00458527 14.3142 0.00551224 14.3149 0.00635815 14.3158C0.00712013 14.3167 0.00780201 14.3177 0.00814056 14.3189C0.00847912 14.32 0.00864506 14.3212 0.00847626 14.3224H0.017786C0.245433 14.4713 0.474011 14.6118 0.694888 14.77C1.23058 15.1085 1.74849 15.4716 2.2571 15.8406C3.5326 16.7696 4.74614 17.7808 5.89005 18.8677C6.10923 19.0699 6.32934 19.2806 6.54853 19.4914C6.58322 19.5261 6.61868 19.5701 6.65338 19.6056C6.96989 19.912 7.26786 20.2192 7.55728 20.5365C7.87379 20.8699 8.1809 21.2135 8.48809 21.552C8.73351 21.8415 8.98824 22.1393 9.23366 22.4381C9.39191 22.631 9.54932 22.8333 9.70757 23.0347C9.83959 23.193 9.96153 23.3597 10.0851 23.5179C10.2696 23.7633 10.454 24.0088 10.6292 24.255C10.6909 24.3396 10.7519 24.4243 10.8043 24.5004C11.0328 24.8161 11.2614 25.1411 11.4713 25.4745C11.5024 25.5133 11.5307 25.5543 11.5558 25.5972C11.7928 25.9569 12.0214 26.3174 12.2405 26.6855C12.4513 27.0105 12.6441 27.3346 12.8193 27.6689C12.8988 27.7916 12.9691 27.9227 13.0393 28.0548C13.223 28.3704 13.399 28.6861 13.5471 29.0026C13.5649 29.0373 13.5826 29.0635 13.5996 29.0991C13.8018 29.4672 13.9863 29.8446 14.1615 30.2221C14.1615 30.2398 14.1699 30.2483 14.1793 30.2661C14.3104 30.5199 14.4248 30.7738 14.539 31.0277C14.5128 30.6892 14.5043 30.3431 14.5043 30.0012V26.1168C11.4929 18.4258 6.75121 11.5314 0.646651 5.96799C0.438469 5.7725 0.219195 5.58125 1.14441e-05 5.3883Z" fill="#1374E7"/>
</g>
<g style="mix-blend-mode:screen" opacity="0.6">
<path d="M42.4136 20.0746C46.0002 23.0889 48.9446 26.7931 51.0717 30.9675C53.1989 35.1418 54.4654 39.701 54.7962 44.3744C54.8046 44.2432 54.8224 43.8311 54.8402 43.2074C54.8529 42.7391 54.841 42.2705 54.8046 41.8034C54.7865 41.1956 54.7339 40.5893 54.6472 39.9873C54.6117 39.6488 54.5626 39.3103 54.5152 38.9515C54.4449 38.6003 54.3747 38.2313 54.3045 37.8513C54.164 37.0965 53.9448 36.3154 53.7172 35.508C53.4447 34.7185 53.2255 33.8756 52.8658 33.0682C52.5408 32.2431 52.155 31.4358 51.7657 30.6284C51.3273 29.8389 50.9143 29.04 50.432 28.3029C49.9758 27.548 49.4494 26.8549 48.9578 26.1796C48.4398 25.5119 47.9219 24.889 47.4049 24.328C46.9255 23.7902 46.4188 23.2776 45.8867 22.792C45.4034 22.3265 44.9388 21.9313 44.5081 21.5894C44.1513 21.2898 43.7793 21.0087 43.3935 20.7474C42.8435 20.3513 42.4923 20.1229 42.4136 20.0746Z" fill="#1374E7"/>
</g>
<g style="mix-blend-mode:screen" opacity="0.6">
<path d="M0.0178499 14.3198H0.00854015C0.0618553 14.3723 0.298809 14.6008 0.69317 14.9512C1.13238 15.3464 1.76371 15.9168 2.51858 16.5929C2.88755 16.9433 3.28022 17.3123 3.70335 17.7075C4.12649 18.1027 4.53693 18.541 4.99306 18.9616C5.87065 19.857 6.79223 20.8133 7.66982 21.8051C8.56517 22.7969 9.39874 23.8361 10.1798 24.7975C10.5488 25.3053 10.9415 25.7631 11.28 26.2362C11.6185 26.7092 11.9469 27.14 12.2456 27.5436C12.8422 28.3603 13.3254 29.0449 13.6673 29.5451C13.9212 29.9132 14.1057 30.1595 14.1852 30.2644C11.0807 23.7068 6.16473 18.1743 0.0178499 14.3198Z" fill="#1374E7"/>
</g>
<g style="mix-blend-mode:screen" opacity="0.6">
<path d="M16.946 51.3214C13.9546 51.3257 10.9778 50.906 8.10417 50.0748H8.06948C8.06948 50.0748 8.51715 50.2762 9.33295 50.5665C10.4564 50.9675 11.6098 51.2787 12.7823 51.4974C14.4503 51.823 16.1461 51.9846 17.8456 51.9798C18.8038 51.9867 19.7617 51.9429 20.7153 51.8486C21.6893 51.7428 22.6812 51.6023 23.6552 51.4009C24.6293 51.1995 25.5949 50.9355 26.5325 50.6393C26.9998 50.5021 27.4597 50.3408 27.9103 50.1561C28.3579 49.9868 28.7971 49.8057 29.227 49.6119C30.0486 49.2589 30.8486 48.8576 31.6228 48.4102C32.3246 48.0254 33.0045 47.6016 33.659 47.1408C34.2176 46.7621 34.7566 46.355 35.2736 45.9213C35.7476 45.5524 36.125 45.1842 36.4491 44.9058C37.0026 44.3617 37.3267 44.0189 37.38 43.958C31.6404 48.7282 24.4092 51.334 16.946 51.3214Z" fill="#1374E7"/>
</g>
<g style="mix-blend-mode:multiply" opacity="0.3">
<path d="M0.000460625 0.737324V30.0047C0.00189877 36.9902 2.44491 43.7555 6.90686 49.1304C6.30178 48.3053 5.73139 47.4717 5.19571 46.6026C4.65046 45.7202 4.15243 44.8095 3.70373 43.8742C3.31783 43.0931 2.98441 42.2942 2.67721 41.4869C2.61543 41.3371 2.56296 41.1797 2.50119 41.0214C2.14 40.0554 1.82934 39.0713 1.57029 38.073C1.3071 37.0786 1.09638 36.071 0.938974 35.0544C0.798493 34.0389 0.685173 33.0183 0.640321 32.0002C0.595469 30.9821 0.604695 29.9641 0.614004 28.9113L0.648786 25.7801L0.692793 19.5228V13.2655C0.692793 10.8339 0.678066 8.40308 0.648786 5.97319C0.640323 4.4279 0.614008 2.88346 0.596236 1.34833L1.18871 1.35679L2.3734 1.48796L3.53448 1.72069L4.68456 2.04481L5.80756 2.47471L6.88655 3.00109L7.92239 3.61548L8.9049 4.31789L9.82649 5.09053L10.6956 5.9368L11.4945 6.84992L12.2138 7.83244L12.846 8.88604L13.3901 9.9862L13.8463 11.127L14.2059 12.3117C13.5324 9.0421 11.7512 6.10495 9.16327 3.99622C6.57521 1.88757 3.33882 0.736477 0.000460625 0.737324Z" fill="#1374E7"/>
</g>
<g style="mix-blend-mode:multiply" opacity="0.3">
<path d="M29.9953 9.53674e-06H22.7385V10.294C22.8519 8.58287 22.9137 6.8624 22.9924 5.15125C23.0626 3.58057 23.1151 2.02005 23.1617 0.447685L28.7081 0.588167C29.7084 0.605938 30.6825 0.596628 31.648 0.672792C32.6187 0.741255 33.5852 0.858463 34.544 1.02399C35.5001 1.17404 36.4466 1.37918 37.379 1.63839C38.3257 1.88838 39.258 2.19015 40.1718 2.5422C41.0756 2.8494 41.9624 3.2793 42.8484 3.66605C43.6998 4.13065 44.5858 4.53432 45.3931 5.07847C46.2394 5.56084 47.0171 6.14054 47.816 6.70246C48.2104 6.98342 48.5777 7.30754 48.9568 7.60628C49.3433 7.90366 49.7123 8.22295 50.062 8.56256C50.4132 8.89599 50.7822 9.22096 51.1241 9.56285L52.1396 10.6249C52.4781 10.9634 52.7718 11.362 53.0959 11.731C53.4031 12.1076 53.7281 12.4681 54.0091 12.8718L54.8773 14.0565L55.6677 15.2938C55.9479 15.7059 56.1755 16.1401 56.4133 16.5632C56.6511 16.9863 56.9134 17.4145 57.1157 17.8622C57.5388 18.7491 57.967 19.6394 58.3005 20.5745C58.6779 21.469 58.9318 22.4084 59.2483 23.33C58.0069 17.9259 55.2959 12.9703 51.4148 9.01024C47.5336 5.05029 42.6334 2.24017 37.2554 0.890285C34.8817 0.293583 32.4429 -0.00549126 29.9953 9.53674e-06Z" fill="#1374E7"/>
</g>
</svg>
